<mxfile host="app.diagrams.net" modified="2020-09-07T00:15:07.523Z" agent="5.0 (Windows NT 10.0; Win64; x64) AppleWebKit/537.36 (KHTML, like Gecko) Chrome/84.0.4147.125 YaBrowser/20.8.2.92 Yowser/2.5 Safari/537.36" etag="kw9rlz2sJKYC5dugIcq0" version="13.6.6" type="github" pages="7">
  <diagram id="C5RBs43oDa-KdzZeNtuy" name="Page-1">
    <mxGraphModel dx="1054" dy="585" grid="0" gridSize="10" guides="1" tooltips="1" connect="1" arrows="1" fold="1" page="1" pageScale="1" pageWidth="827" pageHeight="1169" math="0" shadow="0">
      <root>
        <mxCell id="WIyWlLk6GJQsqaUBKTNV-0" />
        <mxCell id="WIyWlLk6GJQsqaUBKTNV-1" parent="WIyWlLk6GJQsqaUBKTNV-0" />
        <mxCell id="c_pC5c1BMB6gCE4JTv8L-39" style="edgeStyle=orthogonalEdgeStyle;rounded=0;orthogonalLoop=1;jettySize=auto;html=1;" parent="WIyWlLk6GJQsqaUBKTNV-1" source="WIyWlLk6GJQsqaUBKTNV-7" target="c_pC5c1BMB6gCE4JTv8L-38" edge="1">
          <mxGeometry relative="1" as="geometry" />
        </mxCell>
        <mxCell id="WIyWlLk6GJQsqaUBKTNV-7" value="Создание ИЗ на основе заказа" style="rounded=1;whiteSpace=wrap;html=1;fontSize=12;glass=0;strokeWidth=1;shadow=0;fillColor=#d5e8d4;strokeColor=#82b366;" parent="WIyWlLk6GJQsqaUBKTNV-1" vertex="1">
          <mxGeometry x="73" y="488" width="140" height="45" as="geometry" />
        </mxCell>
        <mxCell id="ZHzvoA355msmICCRQiXV-10" style="edgeStyle=orthogonalEdgeStyle;rounded=0;orthogonalLoop=1;jettySize=auto;html=1;" parent="WIyWlLk6GJQsqaUBKTNV-1" source="c_pC5c1BMB6gCE4JTv8L-0" edge="1">
          <mxGeometry relative="1" as="geometry">
            <mxPoint x="299.9999999999998" y="374.88235294117646" as="targetPoint" />
          </mxGeometry>
        </mxCell>
        <mxCell id="c_pC5c1BMB6gCE4JTv8L-0" value="Созданы сообщения ТПиР" style="shape=hexagon;perimeter=hexagonPerimeter2;whiteSpace=wrap;html=1;size=0.07142857142857142;strokeColor=#ae4132;fillColor=#FACDE8;" parent="WIyWlLk6GJQsqaUBKTNV-1" vertex="1">
          <mxGeometry x="230" y="281" width="140" height="60" as="geometry" />
        </mxCell>
        <mxCell id="c_pC5c1BMB6gCE4JTv8L-8" value="" style="shape=sumEllipse;perimeter=ellipsePerimeter;whiteSpace=wrap;html=1;backgroundOutline=1;" parent="WIyWlLk6GJQsqaUBKTNV-1" vertex="1">
          <mxGeometry x="579" y="379" width="30" height="30" as="geometry" />
        </mxCell>
        <mxCell id="c_pC5c1BMB6gCE4JTv8L-16" value="Ведение плановых расценок&lt;br&gt;УНЦ" style="rounded=1;whiteSpace=wrap;html=1;fillColor=#d5e8d4;strokeColor=#82b366;" parent="WIyWlLk6GJQsqaUBKTNV-1" vertex="1">
          <mxGeometry x="534" y="114" width="120" height="60" as="geometry" />
        </mxCell>
        <mxCell id="ZHzvoA355msmICCRQiXV-15" style="edgeStyle=orthogonalEdgeStyle;rounded=0;orthogonalLoop=1;jettySize=auto;html=1;entryX=0.5;entryY=0;entryDx=0;entryDy=0;" parent="WIyWlLk6GJQsqaUBKTNV-1" source="c_pC5c1BMB6gCE4JTv8L-32" target="c_pC5c1BMB6gCE4JTv8L-8" edge="1">
          <mxGeometry relative="1" as="geometry" />
        </mxCell>
        <mxCell id="KrrMwuWqhKUmEiuDbbGa-9" style="edgeStyle=orthogonalEdgeStyle;rounded=0;orthogonalLoop=1;jettySize=auto;html=1;entryX=0.5;entryY=0;entryDx=0;entryDy=0;" parent="WIyWlLk6GJQsqaUBKTNV-1" source="c_pC5c1BMB6gCE4JTv8L-32" target="c_pC5c1BMB6gCE4JTv8L-42" edge="1">
          <mxGeometry relative="1" as="geometry">
            <mxPoint x="734" y="496" as="targetPoint" />
            <Array as="points">
              <mxPoint x="711" y="311" />
              <mxPoint x="711" y="566" />
              <mxPoint x="368" y="566" />
            </Array>
          </mxGeometry>
        </mxCell>
        <mxCell id="c_pC5c1BMB6gCE4JTv8L-32" value="Заведены технологические карты с расценками" style="shape=hexagon;perimeter=hexagonPerimeter2;whiteSpace=wrap;html=1;size=0.07142857142857142;strokeColor=#ae4132;fillColor=#FACDE8;" parent="WIyWlLk6GJQsqaUBKTNV-1" vertex="1">
          <mxGeometry x="532" y="281" width="124" height="60" as="geometry" />
        </mxCell>
        <mxCell id="c_pC5c1BMB6gCE4JTv8L-33" style="edgeStyle=orthogonalEdgeStyle;rounded=0;orthogonalLoop=1;jettySize=auto;html=1;entryX=0.5;entryY=0;entryDx=0;entryDy=0;" parent="WIyWlLk6GJQsqaUBKTNV-1" source="c_pC5c1BMB6gCE4JTv8L-16" target="c_pC5c1BMB6gCE4JTv8L-32" edge="1">
          <mxGeometry relative="1" as="geometry">
            <mxPoint x="757" y="123" as="sourcePoint" />
            <mxPoint x="502" y="193" as="targetPoint" />
          </mxGeometry>
        </mxCell>
        <mxCell id="c_pC5c1BMB6gCE4JTv8L-38" value="Головной заказ создан, созданы подзаказы для ведения плановой стоимости" style="shape=hexagon;perimeter=hexagonPerimeter2;whiteSpace=wrap;html=1;size=0.07142857142857142;strokeColor=#ae4132;fillColor=#FACDE8;" parent="WIyWlLk6GJQsqaUBKTNV-1" vertex="1">
          <mxGeometry x="73" y="578" width="140" height="60" as="geometry" />
        </mxCell>
        <mxCell id="c_pC5c1BMB6gCE4JTv8L-43" value="Расчет индекса технического состояния ИЗ" style="rounded=1;whiteSpace=wrap;html=1;fontSize=12;glass=0;strokeWidth=1;shadow=0;fillColor=#d5e8d4;strokeColor=#82b366;" parent="WIyWlLk6GJQsqaUBKTNV-1" vertex="1">
          <mxGeometry x="603" y="988" width="140" height="40" as="geometry" />
        </mxCell>
        <mxCell id="RBD4TrE846BEy6D8oZNa-5" style="edgeStyle=orthogonalEdgeStyle;rounded=0;orthogonalLoop=1;jettySize=auto;html=1;exitX=0.5;exitY=1;exitDx=0;exitDy=0;entryX=0.5;entryY=0;entryDx=0;entryDy=0;" parent="WIyWlLk6GJQsqaUBKTNV-1" source="c_pC5c1BMB6gCE4JTv8L-42" target="RBD4TrE846BEy6D8oZNa-1" edge="1">
          <mxGeometry relative="1" as="geometry" />
        </mxCell>
        <mxCell id="c_pC5c1BMB6gCE4JTv8L-42" value="Ведение общей плановой стоимости&amp;nbsp;" style="rounded=1;whiteSpace=wrap;html=1;fontSize=12;glass=0;strokeWidth=1;shadow=0;fillColor=#d5e8d4;strokeColor=#82b366;" parent="WIyWlLk6GJQsqaUBKTNV-1" vertex="1">
          <mxGeometry x="273" y="588" width="139" height="40" as="geometry" />
        </mxCell>
        <mxCell id="c_pC5c1BMB6gCE4JTv8L-46" style="edgeStyle=orthogonalEdgeStyle;rounded=0;orthogonalLoop=1;jettySize=auto;html=1;" parent="WIyWlLk6GJQsqaUBKTNV-1" source="c_pC5c1BMB6gCE4JTv8L-38" target="c_pC5c1BMB6gCE4JTv8L-42" edge="1">
          <mxGeometry relative="1" as="geometry">
            <mxPoint x="503" y="634.5" as="targetPoint" />
            <mxPoint x="393" y="634.5" as="sourcePoint" />
          </mxGeometry>
        </mxCell>
        <mxCell id="c_pC5c1BMB6gCE4JTv8L-53" value="P.01.01.04" style="text;html=1;strokeColor=none;fillColor=none;align=center;verticalAlign=middle;whiteSpace=wrap;rounded=0;" parent="WIyWlLk6GJQsqaUBKTNV-1" vertex="1">
          <mxGeometry x="147" y="465" width="70" height="20" as="geometry" />
        </mxCell>
        <mxCell id="c_pC5c1BMB6gCE4JTv8L-54" value="P.01.01.01" style="text;html=1;strokeColor=none;fillColor=none;align=center;verticalAlign=middle;whiteSpace=wrap;rounded=0;" parent="WIyWlLk6GJQsqaUBKTNV-1" vertex="1">
          <mxGeometry x="583" y="94" width="71" height="20" as="geometry" />
        </mxCell>
        <mxCell id="c_pC5c1BMB6gCE4JTv8L-55" value="P.01.01.02" style="text;html=1;strokeColor=none;fillColor=none;align=center;verticalAlign=middle;whiteSpace=wrap;rounded=0;" parent="WIyWlLk6GJQsqaUBKTNV-1" vertex="1">
          <mxGeometry x="308" y="189" width="71" height="20" as="geometry" />
        </mxCell>
        <mxCell id="c_pC5c1BMB6gCE4JTv8L-56" value="P.01.01.03" style="text;html=1;strokeColor=none;fillColor=none;align=center;verticalAlign=middle;whiteSpace=wrap;rounded=0;" parent="WIyWlLk6GJQsqaUBKTNV-1" vertex="1">
          <mxGeometry x="308" y="354" width="71" height="20" as="geometry" />
        </mxCell>
        <mxCell id="c_pC5c1BMB6gCE4JTv8L-57" value="P.01.01.05" style="text;html=1;strokeColor=none;fillColor=none;align=center;verticalAlign=middle;whiteSpace=wrap;rounded=0;" parent="WIyWlLk6GJQsqaUBKTNV-1" vertex="1">
          <mxGeometry x="423" y="893" width="71" height="20" as="geometry" />
        </mxCell>
        <mxCell id="c_pC5c1BMB6gCE4JTv8L-62" value="P.01.01.07" style="text;html=1;strokeColor=none;fillColor=none;align=center;verticalAlign=middle;whiteSpace=wrap;rounded=0;" parent="WIyWlLk6GJQsqaUBKTNV-1" vertex="1">
          <mxGeometry x="376" y="568" width="71" height="20" as="geometry" />
        </mxCell>
        <mxCell id="c_pC5c1BMB6gCE4JTv8L-74" value="P.01.01.08" style="text;html=1;strokeColor=none;fillColor=none;align=center;verticalAlign=middle;whiteSpace=wrap;rounded=0;" parent="WIyWlLk6GJQsqaUBKTNV-1" vertex="1">
          <mxGeometry x="672" y="964" width="71" height="20" as="geometry" />
        </mxCell>
        <mxCell id="c_pC5c1BMB6gCE4JTv8L-76" value="&lt;font style=&quot;font-size: 16px&quot;&gt;Формирование инвестиционной заявки Р.01.01&lt;/font&gt;" style="text;html=1;strokeColor=none;fillColor=none;align=center;verticalAlign=middle;whiteSpace=wrap;rounded=0;" parent="WIyWlLk6GJQsqaUBKTNV-1" vertex="1">
          <mxGeometry x="440" y="10" width="364" height="30" as="geometry" />
        </mxCell>
        <mxCell id="ZHzvoA355msmICCRQiXV-4" style="edgeStyle=orthogonalEdgeStyle;rounded=0;orthogonalLoop=1;jettySize=auto;html=1;entryX=0;entryY=0.5;entryDx=0;entryDy=0;" parent="WIyWlLk6GJQsqaUBKTNV-1" source="ZHzvoA355msmICCRQiXV-0" target="ZHzvoA355msmICCRQiXV-3" edge="1">
          <mxGeometry relative="1" as="geometry">
            <Array as="points">
              <mxPoint x="117" y="229" />
            </Array>
          </mxGeometry>
        </mxCell>
        <mxCell id="ZHzvoA355msmICCRQiXV-0" value="АС УПА ТОиР: приоритизированный список" style="shape=cube;whiteSpace=wrap;html=1;boundedLbl=1;backgroundOutline=1;darkOpacity=0.05;darkOpacity2=0.1;" parent="WIyWlLk6GJQsqaUBKTNV-1" vertex="1">
          <mxGeometry x="34" y="94" width="166" height="80" as="geometry" />
        </mxCell>
        <mxCell id="ZHzvoA355msmICCRQiXV-8" style="edgeStyle=orthogonalEdgeStyle;rounded=0;orthogonalLoop=1;jettySize=auto;html=1;entryX=0.5;entryY=0;entryDx=0;entryDy=0;" parent="WIyWlLk6GJQsqaUBKTNV-1" source="ZHzvoA355msmICCRQiXV-3" target="c_pC5c1BMB6gCE4JTv8L-0" edge="1">
          <mxGeometry relative="1" as="geometry" />
        </mxCell>
        <mxCell id="ZHzvoA355msmICCRQiXV-3" value="Создание сообщений ТПиР" style="rounded=1;whiteSpace=wrap;html=1;fontSize=12;glass=0;strokeWidth=1;shadow=0;fillColor=#d5e8d4;strokeColor=#82b366;" parent="WIyWlLk6GJQsqaUBKTNV-1" vertex="1">
          <mxGeometry x="222" y="209" width="156" height="40" as="geometry" />
        </mxCell>
        <mxCell id="ZHzvoA355msmICCRQiXV-7" style="edgeStyle=orthogonalEdgeStyle;rounded=0;orthogonalLoop=1;jettySize=auto;html=1;entryX=0.5;entryY=0;entryDx=0;entryDy=0;" parent="WIyWlLk6GJQsqaUBKTNV-1" source="ZHzvoA355msmICCRQiXV-6" target="ZHzvoA355msmICCRQiXV-3" edge="1">
          <mxGeometry relative="1" as="geometry" />
        </mxCell>
        <mxCell id="ZHzvoA355msmICCRQiXV-6" value="Ведение технических объектов (БДО) и НСИ" style="shape=cube;whiteSpace=wrap;html=1;boundedLbl=1;backgroundOutline=1;darkOpacity=0.05;darkOpacity2=0.1;" parent="WIyWlLk6GJQsqaUBKTNV-1" vertex="1">
          <mxGeometry x="217" y="94" width="166" height="80" as="geometry" />
        </mxCell>
        <mxCell id="ZHzvoA355msmICCRQiXV-12" style="edgeStyle=orthogonalEdgeStyle;rounded=0;orthogonalLoop=1;jettySize=auto;html=1;" parent="WIyWlLk6GJQsqaUBKTNV-1" source="ZHzvoA355msmICCRQiXV-11" edge="1">
          <mxGeometry relative="1" as="geometry">
            <mxPoint x="429.52941176470586" y="394" as="targetPoint" />
          </mxGeometry>
        </mxCell>
        <mxCell id="ZHzvoA355msmICCRQiXV-11" value="Ведение данных на сообщениях ТПиР" style="rounded=1;whiteSpace=wrap;html=1;fontSize=12;glass=0;strokeWidth=1;shadow=0;fillColor=#d5e8d4;strokeColor=#82b366;" parent="WIyWlLk6GJQsqaUBKTNV-1" vertex="1">
          <mxGeometry x="223" y="374" width="156" height="40" as="geometry" />
        </mxCell>
        <mxCell id="ZHzvoA355msmICCRQiXV-16" style="edgeStyle=orthogonalEdgeStyle;rounded=0;orthogonalLoop=1;jettySize=auto;html=1;entryX=0;entryY=0.5;entryDx=0;entryDy=0;exitX=1;exitY=0.5;exitDx=0;exitDy=0;" parent="WIyWlLk6GJQsqaUBKTNV-1" source="ZHzvoA355msmICCRQiXV-13" target="c_pC5c1BMB6gCE4JTv8L-8" edge="1">
          <mxGeometry relative="1" as="geometry">
            <mxPoint x="521" y="394" as="sourcePoint" />
            <Array as="points">
              <mxPoint x="540" y="394" />
              <mxPoint x="540" y="394" />
            </Array>
          </mxGeometry>
        </mxCell>
        <mxCell id="ZHzvoA355msmICCRQiXV-13" value="Сообщения изменены" style="shape=hexagon;perimeter=hexagonPerimeter2;whiteSpace=wrap;html=1;size=0.07142857142857142;strokeColor=#ae4132;fillColor=#FACDE8;" parent="WIyWlLk6GJQsqaUBKTNV-1" vertex="1">
          <mxGeometry x="428" y="364" width="80" height="60" as="geometry" />
        </mxCell>
        <mxCell id="ZHzvoA355msmICCRQiXV-17" style="edgeStyle=orthogonalEdgeStyle;rounded=0;orthogonalLoop=1;jettySize=auto;html=1;entryX=0;entryY=0.5;entryDx=0;entryDy=0;" parent="WIyWlLk6GJQsqaUBKTNV-1" source="ZHzvoA355msmICCRQiXV-18" edge="1">
          <mxGeometry relative="1" as="geometry">
            <Array as="points">
              <mxPoint x="151" y="391.5" />
            </Array>
            <mxPoint x="222" y="391.5" as="targetPoint" />
          </mxGeometry>
        </mxCell>
        <mxCell id="ZHzvoA355msmICCRQiXV-18" value="Инициатор" style="ellipse;whiteSpace=wrap;html=1;fillColor=#fff2cc;strokeColor=#d6b656;" parent="WIyWlLk6GJQsqaUBKTNV-1" vertex="1">
          <mxGeometry x="73" y="369" width="120" height="45" as="geometry" />
        </mxCell>
        <mxCell id="ZHzvoA355msmICCRQiXV-21" style="edgeStyle=orthogonalEdgeStyle;rounded=0;orthogonalLoop=1;jettySize=auto;html=1;entryX=1;entryY=0.5;entryDx=0;entryDy=0;" parent="WIyWlLk6GJQsqaUBKTNV-1" source="ZHzvoA355msmICCRQiXV-20" target="ZHzvoA355msmICCRQiXV-3" edge="1">
          <mxGeometry relative="1" as="geometry" />
        </mxCell>
        <mxCell id="ZHzvoA355msmICCRQiXV-20" value="Инициатор" style="ellipse;whiteSpace=wrap;html=1;fillColor=#fff2cc;strokeColor=#d6b656;" parent="WIyWlLk6GJQsqaUBKTNV-1" vertex="1">
          <mxGeometry x="405" y="206.5" width="120" height="45" as="geometry" />
        </mxCell>
        <mxCell id="ZHzvoA355msmICCRQiXV-23" style="edgeStyle=orthogonalEdgeStyle;rounded=0;orthogonalLoop=1;jettySize=auto;html=1;entryX=1;entryY=0.5;entryDx=0;entryDy=0;" parent="WIyWlLk6GJQsqaUBKTNV-1" source="ZHzvoA355msmICCRQiXV-22" target="c_pC5c1BMB6gCE4JTv8L-16" edge="1">
          <mxGeometry relative="1" as="geometry" />
        </mxCell>
        <mxCell id="ZHzvoA355msmICCRQiXV-22" value="Специалист" style="ellipse;whiteSpace=wrap;html=1;fillColor=#fff2cc;strokeColor=#d6b656;" parent="WIyWlLk6GJQsqaUBKTNV-1" vertex="1">
          <mxGeometry x="684" y="121.5" width="120" height="45" as="geometry" />
        </mxCell>
        <mxCell id="KrrMwuWqhKUmEiuDbbGa-4" value="Ведение сценарных условий и показателей" style="rounded=1;whiteSpace=wrap;html=1;fontSize=12;glass=0;strokeWidth=1;shadow=0;fillColor=#d5e8d4;strokeColor=#82b366;" parent="WIyWlLk6GJQsqaUBKTNV-1" vertex="1">
          <mxGeometry x="348" y="919" width="140" height="40" as="geometry" />
        </mxCell>
        <mxCell id="KrrMwuWqhKUmEiuDbbGa-11" style="edgeStyle=orthogonalEdgeStyle;rounded=0;orthogonalLoop=1;jettySize=auto;html=1;entryX=1;entryY=0.5;entryDx=0;entryDy=0;" parent="WIyWlLk6GJQsqaUBKTNV-1" source="KrrMwuWqhKUmEiuDbbGa-6" edge="1">
          <mxGeometry relative="1" as="geometry">
            <mxPoint x="410" y="610.5" as="targetPoint" />
          </mxGeometry>
        </mxCell>
        <mxCell id="KrrMwuWqhKUmEiuDbbGa-6" value="Инициатор" style="ellipse;whiteSpace=wrap;html=1;fillColor=#fff2cc;strokeColor=#d6b656;" parent="WIyWlLk6GJQsqaUBKTNV-1" vertex="1">
          <mxGeometry x="447" y="588" width="120" height="45" as="geometry" />
        </mxCell>
        <mxCell id="RBD4TrE846BEy6D8oZNa-11" style="edgeStyle=orthogonalEdgeStyle;rounded=0;orthogonalLoop=1;jettySize=auto;html=1;exitX=0.5;exitY=1;exitDx=0;exitDy=0;entryX=0.5;entryY=0;entryDx=0;entryDy=0;" parent="WIyWlLk6GJQsqaUBKTNV-1" source="KrrMwuWqhKUmEiuDbbGa-13" target="RBD4TrE846BEy6D8oZNa-7" edge="1">
          <mxGeometry relative="1" as="geometry" />
        </mxCell>
        <mxCell id="KrrMwuWqhKUmEiuDbbGa-13" value="Создание новых технических объектов" style="rounded=1;whiteSpace=wrap;html=1;fontSize=12;glass=0;strokeWidth=1;shadow=0;fillColor=#d5e8d4;strokeColor=#82b366;" parent="WIyWlLk6GJQsqaUBKTNV-1" vertex="1">
          <mxGeometry x="130" y="751" width="140" height="40" as="geometry" />
        </mxCell>
        <mxCell id="UifbFWHWKCnpqta1OFgQ-0" value="P.01.01.06" style="text;html=1;strokeColor=none;fillColor=none;align=center;verticalAlign=middle;whiteSpace=wrap;rounded=0;" parent="WIyWlLk6GJQsqaUBKTNV-1" vertex="1">
          <mxGeometry x="193" y="725" width="71" height="20" as="geometry" />
        </mxCell>
        <mxCell id="UifbFWHWKCnpqta1OFgQ-3" value="&lt;font style=&quot;font-size: 12px&quot;&gt;&lt;span style=&quot;font-family: &amp;#34;times new roman&amp;#34; , serif&quot;&gt;Ведение обосновывающих&lt;br/&gt;материалов и др. документов на базе &lt;/span&gt;&lt;span lang=&quot;EN-US&quot; style=&quot;font-family: &amp;#34;times new roman&amp;#34; , serif&quot;&gt;GCM&lt;/span&gt;&lt;/font&gt;" style="rounded=1;whiteSpace=wrap;html=1;fontSize=12;glass=0;strokeWidth=1;shadow=0;fillColor=#d5e8d4;strokeColor=#82b366;" parent="WIyWlLk6GJQsqaUBKTNV-1" vertex="1">
          <mxGeometry x="90" y="975" width="148" height="53" as="geometry" />
        </mxCell>
        <mxCell id="UifbFWHWKCnpqta1OFgQ-4" value="P.01.01.09" style="text;html=1;strokeColor=none;fillColor=none;align=center;verticalAlign=middle;whiteSpace=wrap;rounded=0;" parent="WIyWlLk6GJQsqaUBKTNV-1" vertex="1">
          <mxGeometry x="162" y="939" width="71" height="20" as="geometry" />
        </mxCell>
        <mxCell id="RBD4TrE846BEy6D8oZNa-6" style="edgeStyle=orthogonalEdgeStyle;rounded=0;orthogonalLoop=1;jettySize=auto;html=1;exitX=0;exitY=0.5;exitDx=0;exitDy=0;entryX=1;entryY=0.5;entryDx=0;entryDy=0;" parent="WIyWlLk6GJQsqaUBKTNV-1" source="RBD4TrE846BEy6D8oZNa-0" target="KrrMwuWqhKUmEiuDbbGa-13" edge="1">
          <mxGeometry relative="1" as="geometry" />
        </mxCell>
        <mxCell id="RBD4TrE846BEy6D8oZNa-16" style="edgeStyle=orthogonalEdgeStyle;rounded=0;orthogonalLoop=1;jettySize=auto;html=1;exitX=0.5;exitY=1;exitDx=0;exitDy=0;entryX=0.5;entryY=0;entryDx=0;entryDy=0;" parent="WIyWlLk6GJQsqaUBKTNV-1" source="RBD4TrE846BEy6D8oZNa-0" target="KrrMwuWqhKUmEiuDbbGa-4" edge="1">
          <mxGeometry relative="1" as="geometry" />
        </mxCell>
        <mxCell id="RBD4TrE846BEy6D8oZNa-0" value="Требуется создание нового оборудования?" style="rhombus;whiteSpace=wrap;html=1;" parent="WIyWlLk6GJQsqaUBKTNV-1" vertex="1">
          <mxGeometry x="289" y="731" width="116" height="80" as="geometry" />
        </mxCell>
        <mxCell id="VsEbySm1sSZCZi7b0_Ue-0" style="edgeStyle=orthogonalEdgeStyle;rounded=0;orthogonalLoop=1;jettySize=auto;html=1;exitX=0.5;exitY=1;exitDx=0;exitDy=0;entryX=0.5;entryY=0;entryDx=0;entryDy=0;" parent="WIyWlLk6GJQsqaUBKTNV-1" source="RBD4TrE846BEy6D8oZNa-1" target="RBD4TrE846BEy6D8oZNa-0" edge="1">
          <mxGeometry relative="1" as="geometry" />
        </mxCell>
        <mxCell id="RBD4TrE846BEy6D8oZNa-1" value="Общая плановая стоимость определена" style="shape=hexagon;perimeter=hexagonPerimeter2;whiteSpace=wrap;html=1;size=0.07142857142857142;strokeColor=#ae4132;fillColor=#FACDE8;" parent="WIyWlLk6GJQsqaUBKTNV-1" vertex="1">
          <mxGeometry x="273" y="648" width="140" height="60" as="geometry" />
        </mxCell>
        <mxCell id="RBD4TrE846BEy6D8oZNa-17" style="edgeStyle=orthogonalEdgeStyle;rounded=0;orthogonalLoop=1;jettySize=auto;html=1;exitX=0.5;exitY=1;exitDx=0;exitDy=0;entryX=0.25;entryY=0;entryDx=0;entryDy=0;" parent="WIyWlLk6GJQsqaUBKTNV-1" source="RBD4TrE846BEy6D8oZNa-7" target="KrrMwuWqhKUmEiuDbbGa-4" edge="1">
          <mxGeometry relative="1" as="geometry" />
        </mxCell>
        <mxCell id="RBD4TrE846BEy6D8oZNa-7" value="Технические объекты созданы" style="shape=hexagon;perimeter=hexagonPerimeter2;whiteSpace=wrap;html=1;size=0.07142857142857142;strokeColor=#ae4132;fillColor=#FACDE8;" parent="WIyWlLk6GJQsqaUBKTNV-1" vertex="1">
          <mxGeometry x="130" y="816" width="140" height="60" as="geometry" />
        </mxCell>
        <mxCell id="VsEbySm1sSZCZi7b0_Ue-1" style="edgeStyle=orthogonalEdgeStyle;rounded=0;orthogonalLoop=1;jettySize=auto;html=1;entryX=1;entryY=0.5;entryDx=0;entryDy=0;" parent="WIyWlLk6GJQsqaUBKTNV-1" source="VsEbySm1sSZCZi7b0_Ue-2" edge="1">
          <mxGeometry relative="1" as="geometry">
            <mxPoint x="213" y="513.5" as="targetPoint" />
          </mxGeometry>
        </mxCell>
        <mxCell id="VsEbySm1sSZCZi7b0_Ue-2" value="Инициатор" style="ellipse;whiteSpace=wrap;html=1;fillColor=#fff2cc;strokeColor=#d6b656;" parent="WIyWlLk6GJQsqaUBKTNV-1" vertex="1">
          <mxGeometry x="250" y="491" width="120" height="45" as="geometry" />
        </mxCell>
        <mxCell id="s8GqCYjSKLK5IoYDf4VW-6" value="" style="endArrow=classic;html=1;exitX=0.456;exitY=-0.026;exitDx=0;exitDy=0;exitPerimeter=0;" edge="1" parent="WIyWlLk6GJQsqaUBKTNV-1" source="s8GqCYjSKLK5IoYDf4VW-1" target="UifbFWHWKCnpqta1OFgQ-3">
          <mxGeometry width="50" height="50" relative="1" as="geometry">
            <mxPoint x="387" y="1120" as="sourcePoint" />
            <mxPoint x="437" y="1070" as="targetPoint" />
          </mxGeometry>
        </mxCell>
        <mxCell id="uCG1Ro20KsIEoRLT_VfN-0" value="&lt;span style=&quot;font-family: &amp;#34;times new roman&amp;#34; , serif&quot;&gt;&lt;font style=&quot;font-size: 12px&quot;&gt;Согласование инвестиционной заявки до АСКИД&lt;/font&gt;&lt;/span&gt;" style="shape=cube;whiteSpace=wrap;html=1;boundedLbl=1;backgroundOutline=1;darkOpacity=0.05;darkOpacity2=0.1;" vertex="1" parent="WIyWlLk6GJQsqaUBKTNV-1">
          <mxGeometry x="364" y="1205" width="166" height="80" as="geometry" />
        </mxCell>
        <mxCell id="uCG1Ro20KsIEoRLT_VfN-1" value="" style="endArrow=classic;html=1;entryX=0.375;entryY=0;entryDx=0;entryDy=0;" edge="1" parent="WIyWlLk6GJQsqaUBKTNV-1" source="KrrMwuWqhKUmEiuDbbGa-4" target="554fgYSlWopm2N4RrLIp-3">
          <mxGeometry width="50" height="50" relative="1" as="geometry">
            <mxPoint x="387" y="1096" as="sourcePoint" />
            <mxPoint x="418" y="984" as="targetPoint" />
          </mxGeometry>
        </mxCell>
        <mxCell id="uCG1Ro20KsIEoRLT_VfN-2" value="" style="endArrow=classic;html=1;exitX=0;exitY=0.5;exitDx=0;exitDy=0;entryX=0.5;entryY=0;entryDx=0;entryDy=0;" edge="1" parent="WIyWlLk6GJQsqaUBKTNV-1" source="c_pC5c1BMB6gCE4JTv8L-43" target="554fgYSlWopm2N4RrLIp-1">
          <mxGeometry width="50" height="50" relative="1" as="geometry">
            <mxPoint x="387" y="1096" as="sourcePoint" />
            <mxPoint x="449" y="1023" as="targetPoint" />
            <Array as="points">
              <mxPoint x="549" y="1007" />
            </Array>
          </mxGeometry>
        </mxCell>
        <mxCell id="uCG1Ro20KsIEoRLT_VfN-3" value="" style="endArrow=classic;html=1;exitX=1;exitY=0.5;exitDx=0;exitDy=0;" edge="1" parent="WIyWlLk6GJQsqaUBKTNV-1" source="UifbFWHWKCnpqta1OFgQ-3" target="554fgYSlWopm2N4RrLIp-0">
          <mxGeometry width="50" height="50" relative="1" as="geometry">
            <mxPoint x="387" y="1096" as="sourcePoint" />
            <mxPoint x="308" y="1020" as="targetPoint" />
            <Array as="points">
              <mxPoint x="308" y="1002" />
            </Array>
          </mxGeometry>
        </mxCell>
        <mxCell id="uCG1Ro20KsIEoRLT_VfN-4" value="" style="group" vertex="1" connectable="0" parent="WIyWlLk6GJQsqaUBKTNV-1">
          <mxGeometry x="87" y="1168.5" width="166" height="83" as="geometry" />
        </mxCell>
        <mxCell id="s8GqCYjSKLK5IoYDf4VW-5" value="" style="group" vertex="1" connectable="0" parent="uCG1Ro20KsIEoRLT_VfN-4">
          <mxGeometry width="166" height="83" as="geometry" />
        </mxCell>
        <mxCell id="s8GqCYjSKLK5IoYDf4VW-0" value="" style="rounded=0;whiteSpace=wrap;html=1;" vertex="1" parent="s8GqCYjSKLK5IoYDf4VW-5">
          <mxGeometry width="152.06106870229007" height="69.16666666666666" as="geometry" />
        </mxCell>
        <mxCell id="s8GqCYjSKLK5IoYDf4VW-1" value="" style="rounded=0;whiteSpace=wrap;html=1;" vertex="1" parent="s8GqCYjSKLK5IoYDf4VW-5">
          <mxGeometry x="7.603053435114504" y="5.763888888888888" width="152.06106870229007" height="69.16666666666666" as="geometry" />
        </mxCell>
        <mxCell id="s8GqCYjSKLK5IoYDf4VW-2" value="Материалы и др. документы на базе&amp;nbsp;&lt;span lang=&quot;EN-US&quot;&gt;GCM&lt;/span&gt;" style="rounded=0;whiteSpace=wrap;html=1;" vertex="1" parent="s8GqCYjSKLK5IoYDf4VW-5">
          <mxGeometry x="13.938931297709923" y="13.833333333333332" width="152.06106870229007" height="69.16666666666666" as="geometry" />
        </mxCell>
        <mxCell id="554fgYSlWopm2N4RrLIp-0" value="Обосновывающие материалы и др. документы прикреплены" style="shape=hexagon;perimeter=hexagonPerimeter2;whiteSpace=wrap;html=1;size=0.07142857142857142;strokeColor=#ae4132;fillColor=#FACDE8;" vertex="1" parent="WIyWlLk6GJQsqaUBKTNV-1">
          <mxGeometry x="228" y="1066" width="160" height="73" as="geometry" />
        </mxCell>
        <mxCell id="554fgYSlWopm2N4RrLIp-1" value="Индекс технического состояния ИЗ расчитан" style="shape=hexagon;perimeter=hexagonPerimeter2;whiteSpace=wrap;html=1;size=0.07142857142857142;strokeColor=#ae4132;fillColor=#FACDE8;" vertex="1" parent="WIyWlLk6GJQsqaUBKTNV-1">
          <mxGeometry x="479" y="1063" width="140" height="60" as="geometry" />
        </mxCell>
        <mxCell id="554fgYSlWopm2N4RrLIp-3" value="Технические объекты созданы" style="shape=hexagon;perimeter=hexagonPerimeter2;whiteSpace=wrap;html=1;size=0.07142857142857142;strokeColor=#ae4132;fillColor=#FACDE8;" vertex="1" parent="WIyWlLk6GJQsqaUBKTNV-1">
          <mxGeometry x="366" y="996" width="140" height="60" as="geometry" />
        </mxCell>
        <mxCell id="554fgYSlWopm2N4RrLIp-4" value="" style="endArrow=classic;html=1;entryX=0.488;entryY=0;entryDx=0;entryDy=0;entryPerimeter=0;exitX=0.557;exitY=1.017;exitDx=0;exitDy=0;exitPerimeter=0;" edge="1" parent="WIyWlLk6GJQsqaUBKTNV-1" source="554fgYSlWopm2N4RrLIp-3" target="uCG1Ro20KsIEoRLT_VfN-0">
          <mxGeometry width="50" height="50" relative="1" as="geometry">
            <mxPoint x="387" y="1175" as="sourcePoint" />
            <mxPoint x="437" y="1125" as="targetPoint" />
          </mxGeometry>
        </mxCell>
        <mxCell id="554fgYSlWopm2N4RrLIp-5" value="" style="endArrow=classic;html=1;entryX=0;entryY=0;entryDx=166;entryDy=50;entryPerimeter=0;" edge="1" parent="WIyWlLk6GJQsqaUBKTNV-1" source="554fgYSlWopm2N4RrLIp-1" target="uCG1Ro20KsIEoRLT_VfN-0">
          <mxGeometry width="50" height="50" relative="1" as="geometry">
            <mxPoint x="387" y="1175" as="sourcePoint" />
            <mxPoint x="437" y="1125" as="targetPoint" />
            <Array as="points">
              <mxPoint x="549" y="1255" />
            </Array>
          </mxGeometry>
        </mxCell>
        <mxCell id="554fgYSlWopm2N4RrLIp-6" value="" style="endArrow=classic;html=1;exitX=0.5;exitY=1;exitDx=0;exitDy=0;entryX=0;entryY=0;entryDx=0;entryDy=30;entryPerimeter=0;" edge="1" parent="WIyWlLk6GJQsqaUBKTNV-1" source="554fgYSlWopm2N4RrLIp-0" target="uCG1Ro20KsIEoRLT_VfN-0">
          <mxGeometry width="50" height="50" relative="1" as="geometry">
            <mxPoint x="387" y="1175" as="sourcePoint" />
            <mxPoint x="437" y="1125" as="targetPoint" />
            <Array as="points">
              <mxPoint x="308" y="1235" />
            </Array>
          </mxGeometry>
        </mxCell>
        <mxCell id="j848m34oQJnxaAyS0ztU-0" value="&lt;span style=&quot;font-family: &amp;#34;times new roman&amp;#34; , serif&quot;&gt;&lt;font style=&quot;font-size: 12px&quot;&gt;P.01.02&lt;/font&gt;&lt;/span&gt;" style="text;whiteSpace=wrap;html=1;" vertex="1" parent="WIyWlLk6GJQsqaUBKTNV-1">
          <mxGeometry x="467" y="1174" width="67" height="29" as="geometry" />
        </mxCell>
        <mxCell id="j848m34oQJnxaAyS0ztU-1" value="" style="endArrow=classic;html=1;entryX=0.45;entryY=0.022;entryDx=0;entryDy=0;entryPerimeter=0;" edge="1" parent="WIyWlLk6GJQsqaUBKTNV-1" source="c_pC5c1BMB6gCE4JTv8L-8" target="WIyWlLk6GJQsqaUBKTNV-7">
          <mxGeometry width="50" height="50" relative="1" as="geometry">
            <mxPoint x="387" y="575" as="sourcePoint" />
            <mxPoint x="437" y="525" as="targetPoint" />
            <Array as="points">
              <mxPoint x="594" y="449" />
              <mxPoint x="136" y="449" />
            </Array>
          </mxGeometry>
        </mxCell>
      </root>
    </mxGraphModel>
  </diagram>
  <diagram id="g-K1aQRJvWMKiFnrw95E" name="Page-2">
    <mxGraphModel dx="1054" dy="585" grid="1" gridSize="10" guides="1" tooltips="1" connect="1" arrows="1" fold="1" page="1" pageScale="1" pageWidth="827" pageHeight="1169" math="0" shadow="0">
      <root>
        <mxCell id="uIY4lNAWo-kskuUKcdKT-0" />
        <mxCell id="uIY4lNAWo-kskuUKcdKT-1" parent="uIY4lNAWo-kskuUKcdKT-0" />
        <mxCell id="2fx5i3vzgXeuOOyfsUoW-0" style="edgeStyle=orthogonalEdgeStyle;rounded=0;orthogonalLoop=1;jettySize=auto;html=1;" parent="uIY4lNAWo-kskuUKcdKT-1" source="2fx5i3vzgXeuOOyfsUoW-1" target="2fx5i3vzgXeuOOyfsUoW-3" edge="1">
          <mxGeometry relative="1" as="geometry">
            <mxPoint x="344" y="380" as="targetPoint" />
          </mxGeometry>
        </mxCell>
        <mxCell id="2fx5i3vzgXeuOOyfsUoW-1" value="Согласование ИЗ" style="rounded=1;whiteSpace=wrap;html=1;fillColor=#d5e8d4;strokeColor=#82b366;" parent="uIY4lNAWo-kskuUKcdKT-1" vertex="1">
          <mxGeometry x="259" y="300" width="170" height="40" as="geometry" />
        </mxCell>
        <mxCell id="2fx5i3vzgXeuOOyfsUoW-2" style="edgeStyle=orthogonalEdgeStyle;rounded=0;orthogonalLoop=1;jettySize=auto;html=1;" parent="uIY4lNAWo-kskuUKcdKT-1" source="2fx5i3vzgXeuOOyfsUoW-3" target="qannbj6wSOCQxP0jTNL6-0" edge="1">
          <mxGeometry relative="1" as="geometry">
            <mxPoint x="344" y="570" as="targetPoint" />
          </mxGeometry>
        </mxCell>
        <mxCell id="J3HqutqDwcYl1ajq24ji-3" style="edgeStyle=orthogonalEdgeStyle;rounded=0;orthogonalLoop=1;jettySize=auto;html=1;exitX=1;exitY=0.5;exitDx=0;exitDy=0;entryX=1;entryY=1;entryDx=0;entryDy=0;" parent="uIY4lNAWo-kskuUKcdKT-1" source="2fx5i3vzgXeuOOyfsUoW-3" target="2fx5i3vzgXeuOOyfsUoW-4" edge="1">
          <mxGeometry relative="1" as="geometry">
            <Array as="points">
              <mxPoint x="429" y="420" />
              <mxPoint x="429" y="420" />
            </Array>
          </mxGeometry>
        </mxCell>
        <mxCell id="2fx5i3vzgXeuOOyfsUoW-3" value="Заявка согласована?&lt;br&gt;&amp;nbsp; &amp;nbsp; &amp;nbsp;&lt;br&gt;" style="rhombus;whiteSpace=wrap;html=1;" parent="uIY4lNAWo-kskuUKcdKT-1" vertex="1">
          <mxGeometry x="297" y="380" width="94" height="80" as="geometry" />
        </mxCell>
        <mxCell id="2fx5i3vzgXeuOOyfsUoW-4" value="Нет" style="text;html=1;strokeColor=none;fillColor=none;align=center;verticalAlign=middle;whiteSpace=wrap;rounded=0;" parent="uIY4lNAWo-kskuUKcdKT-1" vertex="1">
          <mxGeometry x="409" y="400" width="40" height="20" as="geometry" />
        </mxCell>
        <mxCell id="2fx5i3vzgXeuOOyfsUoW-5" value="Передача инвестиционной заявки в АСКИД" style="shape=cube;whiteSpace=wrap;html=1;boundedLbl=1;backgroundOutline=1;darkOpacity=0.05;darkOpacity2=0.1;" parent="uIY4lNAWo-kskuUKcdKT-1" vertex="1">
          <mxGeometry x="259" y="710" width="166" height="80" as="geometry" />
        </mxCell>
        <mxCell id="2fx5i3vzgXeuOOyfsUoW-6" value="Да" style="text;html=1;strokeColor=none;fillColor=none;align=center;verticalAlign=middle;whiteSpace=wrap;rounded=0;" parent="uIY4lNAWo-kskuUKcdKT-1" vertex="1">
          <mxGeometry x="344" y="460" width="27" height="20" as="geometry" />
        </mxCell>
        <mxCell id="2fx5i3vzgXeuOOyfsUoW-7" style="edgeStyle=orthogonalEdgeStyle;rounded=0;orthogonalLoop=1;jettySize=auto;html=1;entryX=0;entryY=0.5;entryDx=0;entryDy=0;" parent="uIY4lNAWo-kskuUKcdKT-1" source="2fx5i3vzgXeuOOyfsUoW-8" target="2fx5i3vzgXeuOOyfsUoW-1" edge="1">
          <mxGeometry relative="1" as="geometry" />
        </mxCell>
        <mxCell id="2fx5i3vzgXeuOOyfsUoW-8" value="Специалист" style="ellipse;whiteSpace=wrap;html=1;fillColor=#fff2cc;strokeColor=#d6b656;" parent="uIY4lNAWo-kskuUKcdKT-1" vertex="1">
          <mxGeometry x="80" y="297.5" width="120" height="45.5" as="geometry" />
        </mxCell>
        <mxCell id="2fx5i3vzgXeuOOyfsUoW-9" value="P.01.02.01" style="text;html=1;strokeColor=none;fillColor=none;align=center;verticalAlign=middle;whiteSpace=wrap;rounded=0;" parent="uIY4lNAWo-kskuUKcdKT-1" vertex="1">
          <mxGeometry x="358" y="280" width="71" height="20" as="geometry" />
        </mxCell>
        <mxCell id="2fx5i3vzgXeuOOyfsUoW-10" value="P.01.03" style="text;html=1;strokeColor=none;fillColor=none;align=center;verticalAlign=middle;whiteSpace=wrap;rounded=0;" parent="uIY4lNAWo-kskuUKcdKT-1" vertex="1">
          <mxGeometry x="360" y="690" width="49" height="20" as="geometry" />
        </mxCell>
        <mxCell id="_XO_F-RPzfcHMEpf0Aqa-4" style="edgeStyle=orthogonalEdgeStyle;rounded=0;orthogonalLoop=1;jettySize=auto;html=1;exitX=0.5;exitY=1;exitDx=0;exitDy=0;entryX=0.5;entryY=0;entryDx=0;entryDy=0;" parent="uIY4lNAWo-kskuUKcdKT-1" source="J3HqutqDwcYl1ajq24ji-0" target="_XO_F-RPzfcHMEpf0Aqa-0" edge="1">
          <mxGeometry relative="1" as="geometry" />
        </mxCell>
        <mxCell id="J3HqutqDwcYl1ajq24ji-0" value="Отклонение и корректировка ИЗ" style="rounded=1;whiteSpace=wrap;html=1;fillColor=#d5e8d4;strokeColor=#82b366;" parent="uIY4lNAWo-kskuUKcdKT-1" vertex="1">
          <mxGeometry x="449" y="400" width="170" height="40" as="geometry" />
        </mxCell>
        <mxCell id="J3HqutqDwcYl1ajq24ji-1" value="P.01.02.02" style="text;html=1;strokeColor=none;fillColor=none;align=center;verticalAlign=middle;whiteSpace=wrap;rounded=0;" parent="uIY4lNAWo-kskuUKcdKT-1" vertex="1">
          <mxGeometry x="548" y="380" width="71" height="20" as="geometry" />
        </mxCell>
        <mxCell id="J3HqutqDwcYl1ajq24ji-8" style="edgeStyle=orthogonalEdgeStyle;rounded=0;orthogonalLoop=1;jettySize=auto;html=1;" parent="uIY4lNAWo-kskuUKcdKT-1" source="J3HqutqDwcYl1ajq24ji-4" edge="1">
          <mxGeometry relative="1" as="geometry">
            <mxPoint x="344" y="300" as="targetPoint" />
            <Array as="points">
              <mxPoint x="344" y="260" />
              <mxPoint x="344" y="260" />
            </Array>
          </mxGeometry>
        </mxCell>
        <mxCell id="J3HqutqDwcYl1ajq24ji-4" value="Формирование инвестиционной заявки" style="shape=cube;whiteSpace=wrap;html=1;boundedLbl=1;backgroundOutline=1;darkOpacity=0.05;darkOpacity2=0.1;" parent="uIY4lNAWo-kskuUKcdKT-1" vertex="1">
          <mxGeometry x="259" y="170" width="166" height="80" as="geometry" />
        </mxCell>
        <mxCell id="J3HqutqDwcYl1ajq24ji-5" value="P.01.01" style="text;html=1;strokeColor=none;fillColor=none;align=center;verticalAlign=middle;whiteSpace=wrap;rounded=0;" parent="uIY4lNAWo-kskuUKcdKT-1" vertex="1">
          <mxGeometry x="369" y="140" width="49" height="20" as="geometry" />
        </mxCell>
        <mxCell id="wHRa-c25oqksgMRBYjr--0" value="&lt;span style=&quot;font-size: 12pt&quot;&gt;Согласование инвестиционной заявки до АСКИД&amp;nbsp;&amp;nbsp;&lt;/span&gt;&lt;span style=&quot;font-size: 12pt&quot;&gt;P.01.02&lt;/span&gt;&lt;span style=&quot;font-size: 12pt&quot;&gt;&lt;br&gt;&amp;nbsp;&lt;/span&gt;" style="text;html=1;strokeColor=none;fillColor=none;align=center;verticalAlign=middle;whiteSpace=wrap;rounded=0;" parent="uIY4lNAWo-kskuUKcdKT-1" vertex="1">
          <mxGeometry x="330" y="10" width="474" height="30" as="geometry" />
        </mxCell>
        <mxCell id="_XO_F-RPzfcHMEpf0Aqa-3" style="edgeStyle=orthogonalEdgeStyle;rounded=0;orthogonalLoop=1;jettySize=auto;html=1;exitX=1;exitY=0.5;exitDx=0;exitDy=0;entryX=1;entryY=0.5;entryDx=0;entryDy=0;" parent="uIY4lNAWo-kskuUKcdKT-1" source="_XO_F-RPzfcHMEpf0Aqa-0" target="2fx5i3vzgXeuOOyfsUoW-1" edge="1">
          <mxGeometry relative="1" as="geometry">
            <Array as="points">
              <mxPoint x="800" y="500" />
              <mxPoint x="800" y="320" />
            </Array>
          </mxGeometry>
        </mxCell>
        <mxCell id="_XO_F-RPzfcHMEpf0Aqa-0" value="Заявка откорректирована" style="shape=hexagon;perimeter=hexagonPerimeter2;whiteSpace=wrap;html=1;size=0.07142857142857142;strokeColor=#ae4132;fillColor=#FACDE8;" parent="uIY4lNAWo-kskuUKcdKT-1" vertex="1">
          <mxGeometry x="464" y="470" width="140" height="60" as="geometry" />
        </mxCell>
        <mxCell id="_XO_F-RPzfcHMEpf0Aqa-2" style="edgeStyle=orthogonalEdgeStyle;rounded=0;orthogonalLoop=1;jettySize=auto;html=1;entryX=1;entryY=0.5;entryDx=0;entryDy=0;" parent="uIY4lNAWo-kskuUKcdKT-1" source="_XO_F-RPzfcHMEpf0Aqa-1" target="J3HqutqDwcYl1ajq24ji-0" edge="1">
          <mxGeometry relative="1" as="geometry" />
        </mxCell>
        <mxCell id="_XO_F-RPzfcHMEpf0Aqa-1" value="Специалист" style="ellipse;whiteSpace=wrap;html=1;fillColor=#fff2cc;strokeColor=#d6b656;" parent="uIY4lNAWo-kskuUKcdKT-1" vertex="1">
          <mxGeometry x="660" y="397.25" width="120" height="45.5" as="geometry" />
        </mxCell>
        <mxCell id="eImE4nozshgLwYc9yb4C-0" value="" style="endArrow=none;dashed=1;html=1;dashPattern=1 3;strokeWidth=2;" edge="1" parent="uIY4lNAWo-kskuUKcdKT-1">
          <mxGeometry width="50" height="50" relative="1" as="geometry">
            <mxPoint x="234" y="278" as="sourcePoint" />
            <mxPoint x="234" y="278" as="targetPoint" />
            <Array as="points">
              <mxPoint x="234" y="542" />
              <mxPoint x="840" y="542" />
              <mxPoint x="840" y="408" />
              <mxPoint x="840" y="278" />
            </Array>
          </mxGeometry>
        </mxCell>
        <mxCell id="uUwqxbn2LTaB9neSx4PI-0" value="&lt;font style=&quot;font-size: 12px&quot;&gt;Система SAP S/4HANA&lt;/font&gt;" style="text;whiteSpace=wrap;html=1;" vertex="1" parent="uIY4lNAWo-kskuUKcdKT-1">
          <mxGeometry x="670" y="340" width="178" height="29" as="geometry" />
        </mxCell>
        <mxCell id="qannbj6wSOCQxP0jTNL6-0" value="Интерфейс" style="ellipse;whiteSpace=wrap;html=1;aspect=fixed;" vertex="1" parent="uIY4lNAWo-kskuUKcdKT-1">
          <mxGeometry x="304" y="570" width="80" height="80" as="geometry" />
        </mxCell>
        <mxCell id="qannbj6wSOCQxP0jTNL6-1" value="" style="endArrow=classic;html=1;exitX=0.5;exitY=1;exitDx=0;exitDy=0;entryX=0.506;entryY=0.025;entryDx=0;entryDy=0;entryPerimeter=0;" edge="1" parent="uIY4lNAWo-kskuUKcdKT-1" source="qannbj6wSOCQxP0jTNL6-0" target="2fx5i3vzgXeuOOyfsUoW-5">
          <mxGeometry width="50" height="50" relative="1" as="geometry">
            <mxPoint x="390" y="520" as="sourcePoint" />
            <mxPoint x="440" y="470" as="targetPoint" />
          </mxGeometry>
        </mxCell>
        <mxCell id="J6h1Lwy_YnC3leDABPzA-0" value="" style="endArrow=none;dashed=1;html=1;dashPattern=1 3;strokeWidth=2;" edge="1" parent="uIY4lNAWo-kskuUKcdKT-1">
          <mxGeometry width="50" height="50" relative="1" as="geometry">
            <mxPoint x="247.5" y="660" as="sourcePoint" />
            <mxPoint x="247.5" y="660" as="targetPoint" />
            <Array as="points">
              <mxPoint x="248" y="840" />
              <mxPoint x="560" y="840" />
              <mxPoint x="560" y="660" />
            </Array>
          </mxGeometry>
        </mxCell>
        <mxCell id="7DsLugIsbXfXqeQKAMgO-0" value="Система АСКИД" style="text;html=1;strokeColor=none;fillColor=none;align=center;verticalAlign=middle;whiteSpace=wrap;rounded=0;" vertex="1" parent="uIY4lNAWo-kskuUKcdKT-1">
          <mxGeometry x="460" y="660" width="100" height="20" as="geometry" />
        </mxCell>
      </root>
    </mxGraphModel>
  </diagram>
  <diagram id="qCCtzFo12JJKiQEWSMpF" name="Page-3">
    <mxGraphModel dx="1054" dy="585" grid="0" gridSize="10" guides="1" tooltips="1" connect="1" arrows="1" fold="1" page="1" pageScale="1" pageWidth="827" pageHeight="1169" math="0" shadow="0">
      <root>
        <mxCell id="2nYcpS7fwBgkCxUIMv-R-0" />
        <mxCell id="2nYcpS7fwBgkCxUIMv-R-1" parent="2nYcpS7fwBgkCxUIMv-R-0" />
        <mxCell id="nf6SZ0pj0Dem82uTEeHt-0" style="edgeStyle=orthogonalEdgeStyle;rounded=0;orthogonalLoop=1;jettySize=auto;html=1;" parent="2nYcpS7fwBgkCxUIMv-R-1" source="o-uVd0T_ewzq5-CMJJRx-0" target="nf6SZ0pj0Dem82uTEeHt-1" edge="1">
          <mxGeometry relative="1" as="geometry">
            <mxPoint x="234" y="212" as="targetPoint" />
          </mxGeometry>
        </mxCell>
        <mxCell id="o-uVd0T_ewzq5-CMJJRx-0" value="&lt;span style=&quot;font-family: &amp;#34;times new roman&amp;#34; , serif&quot;&gt;&lt;font style=&quot;font-size: 12px&quot;&gt;Согласование инвестиционной заявки до АСКИД&lt;/font&gt;&lt;/span&gt;" style="shape=cube;whiteSpace=wrap;html=1;boundedLbl=1;backgroundOutline=1;darkOpacity=0.05;darkOpacity2=0.1;" parent="2nYcpS7fwBgkCxUIMv-R-1" vertex="1">
          <mxGeometry x="151" y="92" width="166" height="80" as="geometry" />
        </mxCell>
        <mxCell id="adWo_KyG0K3lABlDPwlD-0" value="&lt;font style=&quot;font-size: 12px&quot;&gt;P.01.02&lt;/font&gt;" style="text;html=1;strokeColor=none;fillColor=none;align=center;verticalAlign=middle;whiteSpace=wrap;rounded=0;" parent="2nYcpS7fwBgkCxUIMv-R-1" vertex="1">
          <mxGeometry x="248" y="72" width="49" height="20" as="geometry" />
        </mxCell>
        <mxCell id="g-H4BJ1Wary2l5bnuvEm-0" value="&lt;font style=&quot;font-size: 16px&quot;&gt;&lt;span&gt;Передача инвестиционной заявки в АСКИД&lt;/span&gt;&amp;nbsp;Р.01.03&lt;/font&gt;" style="text;html=1;strokeColor=none;fillColor=none;align=center;verticalAlign=middle;whiteSpace=wrap;rounded=0;" parent="2nYcpS7fwBgkCxUIMv-R-1" vertex="1">
          <mxGeometry x="395" y="10" width="409" height="30" as="geometry" />
        </mxCell>
        <mxCell id="nf6SZ0pj0Dem82uTEeHt-1" value="&lt;span style=&quot;font-family: &amp;#34;times new roman&amp;#34; , serif&quot;&gt;&lt;font style=&quot;font-size: 12px&quot;&gt;Создание инициативы на стороне АСКИД&lt;/font&gt;&lt;/span&gt;" style="rounded=1;whiteSpace=wrap;html=1;fillColor=#d5e8d4;strokeColor=#82b366;" parent="2nYcpS7fwBgkCxUIMv-R-1" vertex="1">
          <mxGeometry x="164" y="202" width="140" height="60" as="geometry" />
        </mxCell>
        <mxCell id="u_JtwXHPxepvXPoeJHaP-4" style="edgeStyle=orthogonalEdgeStyle;rounded=0;orthogonalLoop=1;jettySize=auto;html=1;entryX=0;entryY=0.5;entryDx=0;entryDy=0;entryPerimeter=0;" parent="2nYcpS7fwBgkCxUIMv-R-1" target="u_JtwXHPxepvXPoeJHaP-2" edge="1">
          <mxGeometry relative="1" as="geometry">
            <mxPoint x="557" y="236.5" as="sourcePoint" />
          </mxGeometry>
        </mxCell>
        <mxCell id="u_JtwXHPxepvXPoeJHaP-0" value="Интерфейс" style="ellipse;whiteSpace=wrap;html=1;aspect=fixed;" parent="2nYcpS7fwBgkCxUIMv-R-1" vertex="1">
          <mxGeometry x="483" y="196.5" width="80" height="80" as="geometry" />
        </mxCell>
        <mxCell id="u_JtwXHPxepvXPoeJHaP-7" style="edgeStyle=orthogonalEdgeStyle;rounded=0;orthogonalLoop=1;jettySize=auto;html=1;" parent="2nYcpS7fwBgkCxUIMv-R-1" source="u_JtwXHPxepvXPoeJHaP-2" target="u_JtwXHPxepvXPoeJHaP-0" edge="1">
          <mxGeometry relative="1" as="geometry">
            <mxPoint x="557" y="236.5" as="targetPoint" />
          </mxGeometry>
        </mxCell>
        <mxCell id="u_JtwXHPxepvXPoeJHaP-2" value="&lt;br&gt;&lt;br&gt;Создание инвестиционной заявки на стороне АСКИД.&lt;br&gt;Корректировка и согласование ИЗ." style="strokeWidth=2;html=1;shape=mxgraph.flowchart.database;whiteSpace=wrap;" parent="2nYcpS7fwBgkCxUIMv-R-1" vertex="1">
          <mxGeometry x="621" y="156.5" width="170" height="160" as="geometry" />
        </mxCell>
        <mxCell id="u_JtwXHPxepvXPoeJHaP-5" value="Система АСКИД" style="text;html=1;strokeColor=none;fillColor=none;align=center;verticalAlign=middle;whiteSpace=wrap;rounded=0;" parent="2nYcpS7fwBgkCxUIMv-R-1" vertex="1">
          <mxGeometry x="722" y="96.5" width="100" height="20" as="geometry" />
        </mxCell>
        <mxCell id="0um7T0gEFgthrOwVaBdq-3" value="" style="endArrow=none;dashed=1;html=1;dashPattern=1 3;strokeWidth=2;" parent="2nYcpS7fwBgkCxUIMv-R-1" edge="1">
          <mxGeometry width="50" height="50" relative="1" as="geometry">
            <mxPoint x="602" y="96.5" as="sourcePoint" />
            <mxPoint x="602" y="96.5" as="targetPoint" />
            <Array as="points">
              <mxPoint x="602" y="360.5" />
              <mxPoint x="822" y="360.5" />
              <mxPoint x="822" y="96.5" />
            </Array>
          </mxGeometry>
        </mxCell>
        <mxCell id="3i0Y3tJkDiM5zF4m9UsL-1" value="&lt;span style=&quot;font-family: &amp;#34;times new roman&amp;#34; , serif&quot;&gt;&lt;font style=&quot;font-size: 12px&quot;&gt;Согласование инвестиционной заявки в АСКИД&lt;/font&gt;&lt;/span&gt;" style="shape=cube;whiteSpace=wrap;html=1;boundedLbl=1;backgroundOutline=1;darkOpacity=0.05;darkOpacity2=0.1;" parent="2nYcpS7fwBgkCxUIMv-R-1" vertex="1">
          <mxGeometry x="44" y="399" width="166" height="80" as="geometry" />
        </mxCell>
        <mxCell id="rqerjDmjj1KPwKfVpqlx-0" value="&lt;font style=&quot;font-size: 12px&quot;&gt;P.01.04&lt;/font&gt;" style="text;html=1;strokeColor=none;fillColor=none;align=center;verticalAlign=middle;whiteSpace=wrap;rounded=0;" parent="2nYcpS7fwBgkCxUIMv-R-1" vertex="1">
          <mxGeometry x="143" y="375" width="49" height="20" as="geometry" />
        </mxCell>
        <mxCell id="Am7DBbpWjkdoNHqLogBd-1" style="edgeStyle=orthogonalEdgeStyle;rounded=0;orthogonalLoop=1;jettySize=auto;html=1;entryX=0;entryY=0.5;entryDx=0;entryDy=0;" parent="2nYcpS7fwBgkCxUIMv-R-1" target="nf6SZ0pj0Dem82uTEeHt-1" edge="1">
          <mxGeometry relative="1" as="geometry">
            <mxPoint x="126" y="232" as="sourcePoint" />
          </mxGeometry>
        </mxCell>
        <mxCell id="Am7DBbpWjkdoNHqLogBd-0" value="Специалист" style="ellipse;whiteSpace=wrap;html=1;fillColor=#fff2cc;strokeColor=#d6b656;" parent="2nYcpS7fwBgkCxUIMv-R-1" vertex="1">
          <mxGeometry x="6" y="210.5" width="120" height="45" as="geometry" />
        </mxCell>
        <mxCell id="uUV3IVL9VZoz6JlBbg8n-0" value="&lt;font style=&quot;font-size: 12px&quot;&gt;P.01.03.01 &lt;/font&gt;" style="text;whiteSpace=wrap;html=1;" parent="2nYcpS7fwBgkCxUIMv-R-1" vertex="1">
          <mxGeometry x="242" y="177" width="93" height="30" as="geometry" />
        </mxCell>
        <mxCell id="DrV_CC6BYpNRn7TuYZ_e-0" value="&lt;span style=&quot;font-family: &amp;#34;times new roman&amp;#34; , serif&quot;&gt;&lt;font style=&quot;font-size: 12px&quot;&gt;Получение подтверждения из АСКИД&lt;/font&gt;&lt;/span&gt;" style="rounded=1;whiteSpace=wrap;html=1;fillColor=#d5e8d4;strokeColor=#82b366;arcSize=15;" parent="2nYcpS7fwBgkCxUIMv-R-1" vertex="1">
          <mxGeometry x="417" y="409" width="140" height="60" as="geometry" />
        </mxCell>
        <mxCell id="DrV_CC6BYpNRn7TuYZ_e-1" value="" style="endArrow=classic;html=1;exitX=0;exitY=0.5;exitDx=0;exitDy=0;entryX=1;entryY=0.5;entryDx=0;entryDy=0;" parent="2nYcpS7fwBgkCxUIMv-R-1" source="DrV_CC6BYpNRn7TuYZ_e-0" target="Xwjm4bseiSN81tGQmAM0-2" edge="1">
          <mxGeometry width="50" height="50" relative="1" as="geometry">
            <mxPoint x="387" y="427" as="sourcePoint" />
            <mxPoint x="437" y="377" as="targetPoint" />
          </mxGeometry>
        </mxCell>
        <mxCell id="DrV_CC6BYpNRn7TuYZ_e-2" value="&lt;font style=&quot;font-size: 12px&quot;&gt;P.01.03.03 &lt;/font&gt;" style="text;whiteSpace=wrap;html=1;" parent="2nYcpS7fwBgkCxUIMv-R-1" vertex="1">
          <mxGeometry x="483" y="382" width="87" height="30" as="geometry" />
        </mxCell>
        <mxCell id="2VCkZ8ev8MxspsVgO5ag-0" value="&lt;font style=&quot;font-size: 12px&quot;&gt;P.01.03.02 &lt;/font&gt;" style="text;whiteSpace=wrap;html=1;" parent="2nYcpS7fwBgkCxUIMv-R-1" vertex="1">
          <mxGeometry x="755" y="67.5" width="87" height="29" as="geometry" />
        </mxCell>
        <mxCell id="ASybncCt_6IbOLdWpQ2C-0" value="Интерфейс" style="ellipse;whiteSpace=wrap;html=1;aspect=fixed;" parent="2nYcpS7fwBgkCxUIMv-R-1" vertex="1">
          <mxGeometry x="666" y="399" width="80" height="80" as="geometry" />
        </mxCell>
        <mxCell id="HsYLqsYNOz8AYnko1rbS-0" value="Инициатива создана" style="shape=hexagon;perimeter=hexagonPerimeter2;whiteSpace=wrap;html=1;size=0.07142857142857142;strokeColor=#ae4132;fillColor=#FACDE8;" vertex="1" parent="2nYcpS7fwBgkCxUIMv-R-1">
          <mxGeometry x="323" y="203" width="140" height="60" as="geometry" />
        </mxCell>
        <mxCell id="1fMnoBbspWA8876TEw0o-0" value="" style="endArrow=classic;html=1;exitX=1;exitY=0.5;exitDx=0;exitDy=0;" edge="1" parent="2nYcpS7fwBgkCxUIMv-R-1" source="nf6SZ0pj0Dem82uTEeHt-1" target="HsYLqsYNOz8AYnko1rbS-0">
          <mxGeometry width="50" height="50" relative="1" as="geometry">
            <mxPoint x="387" y="334" as="sourcePoint" />
            <mxPoint x="437" y="284" as="targetPoint" />
          </mxGeometry>
        </mxCell>
        <mxCell id="Xwjm4bseiSN81tGQmAM0-0" value="" style="endArrow=classic;startArrow=classic;html=1;entryX=0;entryY=0.5;entryDx=0;entryDy=0;" edge="1" parent="2nYcpS7fwBgkCxUIMv-R-1" source="HsYLqsYNOz8AYnko1rbS-0" target="u_JtwXHPxepvXPoeJHaP-0">
          <mxGeometry width="50" height="50" relative="1" as="geometry">
            <mxPoint x="387" y="334" as="sourcePoint" />
            <mxPoint x="437" y="284" as="targetPoint" />
          </mxGeometry>
        </mxCell>
        <mxCell id="Xwjm4bseiSN81tGQmAM0-2" value="Подтверждение получено" style="shape=hexagon;perimeter=hexagonPerimeter2;whiteSpace=wrap;html=1;size=0.07142857142857142;strokeColor=#ae4132;fillColor=#FACDE8;" vertex="1" parent="2nYcpS7fwBgkCxUIMv-R-1">
          <mxGeometry x="242" y="409" width="140" height="60" as="geometry" />
        </mxCell>
        <mxCell id="Xwjm4bseiSN81tGQmAM0-3" value="" style="endArrow=classic;html=1;exitX=0;exitY=0.5;exitDx=0;exitDy=0;" edge="1" parent="2nYcpS7fwBgkCxUIMv-R-1" source="Xwjm4bseiSN81tGQmAM0-2" target="3i0Y3tJkDiM5zF4m9UsL-1">
          <mxGeometry width="50" height="50" relative="1" as="geometry">
            <mxPoint x="387" y="334" as="sourcePoint" />
            <mxPoint x="437" y="284" as="targetPoint" />
          </mxGeometry>
        </mxCell>
        <mxCell id="ega8zmj5ZMulol8LFvdE-0" value="" style="endArrow=classic;startArrow=classic;html=1;exitX=0.5;exitY=0;exitDx=0;exitDy=0;" edge="1" parent="2nYcpS7fwBgkCxUIMv-R-1" source="ASybncCt_6IbOLdWpQ2C-0" target="u_JtwXHPxepvXPoeJHaP-2">
          <mxGeometry width="50" height="50" relative="1" as="geometry">
            <mxPoint x="387" y="327" as="sourcePoint" />
            <mxPoint x="437" y="277" as="targetPoint" />
          </mxGeometry>
        </mxCell>
        <mxCell id="ega8zmj5ZMulol8LFvdE-1" value="" style="endArrow=classic;startArrow=classic;html=1;exitX=1;exitY=0.5;exitDx=0;exitDy=0;" edge="1" parent="2nYcpS7fwBgkCxUIMv-R-1" source="DrV_CC6BYpNRn7TuYZ_e-0" target="ASybncCt_6IbOLdWpQ2C-0">
          <mxGeometry width="50" height="50" relative="1" as="geometry">
            <mxPoint x="387" y="327" as="sourcePoint" />
            <mxPoint x="437" y="277" as="targetPoint" />
          </mxGeometry>
        </mxCell>
      </root>
    </mxGraphModel>
  </diagram>
  <diagram id="U4qtcWyaJASmroTgLnzs" name="Page-4">
    <mxGraphModel dx="1881" dy="585" grid="0" gridSize="10" guides="1" tooltips="1" connect="1" arrows="1" fold="1" page="1" pageScale="1" pageWidth="827" pageHeight="1169" math="0" shadow="0">
      <root>
        <mxCell id="hhKOQZns3760f8i8-geJ-0" />
        <mxCell id="hhKOQZns3760f8i8-geJ-1" parent="hhKOQZns3760f8i8-geJ-0" />
        <mxCell id="qpx3Q2VWurJxZG1vas4N-0" value="&lt;font&gt;&lt;span style=&quot;font-size: 16px&quot;&gt;Согласование инвестиционной заявки в АСКИД Р.01.04&lt;/span&gt;&lt;/font&gt;" style="text;html=1;strokeColor=none;fillColor=none;align=center;verticalAlign=middle;whiteSpace=wrap;rounded=0;" parent="hhKOQZns3760f8i8-geJ-1" vertex="1">
          <mxGeometry x="368" y="10" width="436" height="30" as="geometry" />
        </mxCell>
        <mxCell id="bWxfmAh8v33M8ad3hohu-1" style="edgeStyle=orthogonalEdgeStyle;rounded=0;orthogonalLoop=1;jettySize=auto;html=1;entryX=0.5;entryY=0;entryDx=0;entryDy=0;" parent="hhKOQZns3760f8i8-geJ-1" source="QeKE1bZzhpKvt54h3yeR-0" target="bWxfmAh8v33M8ad3hohu-0" edge="1">
          <mxGeometry relative="1" as="geometry" />
        </mxCell>
        <mxCell id="zqzjYhxHLn3TAs3LUrE9-0" value="&lt;font style=&quot;font-size: 12px&quot;&gt;Передача инвестиционной заявки в АСКИД&amp;nbsp;&lt;/font&gt;" style="shape=cube;whiteSpace=wrap;html=1;boundedLbl=1;backgroundOutline=1;darkOpacity=0.05;darkOpacity2=0.1;" parent="hhKOQZns3760f8i8-geJ-1" vertex="1">
          <mxGeometry x="271" y="107" width="166" height="80" as="geometry" />
        </mxCell>
        <mxCell id="djAqqpANRbFnGxB2Wj4n-0" value="P.01.03" style="text;html=1;strokeColor=none;fillColor=none;align=center;verticalAlign=middle;whiteSpace=wrap;rounded=0;" parent="hhKOQZns3760f8i8-geJ-1" vertex="1">
          <mxGeometry x="372" y="78" width="49" height="20" as="geometry" />
        </mxCell>
        <mxCell id="bWxfmAh8v33M8ad3hohu-0" value="Интерфейс IDOC&amp;nbsp;&lt;br style=&quot;font-size: 11px&quot;&gt;&lt;span style=&quot;font-size: 11px ; font-family: &amp;#34;calibri&amp;#34; , sans-serif&quot;&gt;ZTRM_PPM002_T_IDOC &amp;amp;&amp;nbsp;&lt;/span&gt;&lt;span style=&quot;font-size: 11px ; font-family: &amp;#34;calibri&amp;#34; , sans-serif&quot;&gt;ZTRM_PPM003_T_IDOC&lt;/span&gt;" style="ellipse;whiteSpace=wrap;html=1;aspect=fixed;fontSize=11;" parent="hhKOQZns3760f8i8-geJ-1" vertex="1">
          <mxGeometry x="334.5" y="484" width="81" height="81" as="geometry" />
        </mxCell>
        <mxCell id="bWxfmAh8v33M8ad3hohu-2" value="Создание Фонда, Определения проекта, СПП-элементов 2ого и 3его уровня" style="rounded=1;whiteSpace=wrap;html=1;fillColor=#f5f5f5;strokeColor=#666666;fontColor=#333333;" parent="hhKOQZns3760f8i8-geJ-1" vertex="1">
          <mxGeometry x="-149" y="246.58" width="140" height="60" as="geometry" />
        </mxCell>
        <mxCell id="p9UmyLIY0F-mJ5_tziju-0" value="" style="endArrow=none;dashed=1;html=1;dashPattern=1 3;strokeWidth=2;" parent="hhKOQZns3760f8i8-geJ-1" edge="1">
          <mxGeometry width="50" height="50" relative="1" as="geometry">
            <mxPoint x="234" y="50" as="sourcePoint" />
            <mxPoint x="234" y="50" as="targetPoint" />
            <Array as="points">
              <mxPoint x="234" y="215" />
              <mxPoint x="514" y="215" />
              <mxPoint x="514" y="50" />
            </Array>
          </mxGeometry>
        </mxCell>
        <mxCell id="eOaOa8KSe2WHNZNuoLcI-0" value="Система АСКИД" style="text;html=1;strokeColor=none;fillColor=none;align=center;verticalAlign=middle;whiteSpace=wrap;rounded=0;" parent="hhKOQZns3760f8i8-geJ-1" vertex="1">
          <mxGeometry x="409.5" y="50" width="100" height="20" as="geometry" />
        </mxCell>
        <mxCell id="XxF50EYIa_8RG40JXQUQ-1" style="edgeStyle=orthogonalEdgeStyle;rounded=0;orthogonalLoop=1;jettySize=auto;html=1;exitX=0;exitY=0.5;exitDx=0;exitDy=0;" parent="hhKOQZns3760f8i8-geJ-1" source="YH_HCsDl9Btgcp5SAB-7-2" target="jlK9NyFO09yr3J1iHbtJ-4" edge="1">
          <mxGeometry relative="1" as="geometry">
            <mxPoint x="360" y="595" as="sourcePoint" />
            <Array as="points">
              <mxPoint x="222" y="235" />
            </Array>
          </mxGeometry>
        </mxCell>
        <mxCell id="7OKhSnxkhulgmEiVHJU7-2" style="edgeStyle=orthogonalEdgeStyle;rounded=0;orthogonalLoop=1;jettySize=auto;html=1;entryX=0.5;entryY=0;entryDx=0;entryDy=0;" parent="hhKOQZns3760f8i8-geJ-1" source="bWxfmAh8v33M8ad3hohu-0" target="7OKhSnxkhulgmEiVHJU7-1" edge="1">
          <mxGeometry relative="1" as="geometry">
            <mxPoint x="366" y="567" as="sourcePoint" />
            <mxPoint x="366" y="647" as="targetPoint" />
          </mxGeometry>
        </mxCell>
        <mxCell id="7OKhSnxkhulgmEiVHJU7-0" value="P.01.04.01" style="text;html=1;strokeColor=none;fillColor=none;align=center;verticalAlign=middle;whiteSpace=wrap;rounded=0;" parent="hhKOQZns3760f8i8-geJ-1" vertex="1">
          <mxGeometry x="404" y="238" width="49" height="20" as="geometry" />
        </mxCell>
        <mxCell id="JkXyJDRW2Ao36Eujse0S-1" style="edgeStyle=orthogonalEdgeStyle;rounded=0;orthogonalLoop=1;jettySize=auto;html=1;entryX=0.5;entryY=0;entryDx=0;entryDy=0;" parent="hhKOQZns3760f8i8-geJ-1" source="7OKhSnxkhulgmEiVHJU7-1" target="JkXyJDRW2Ao36Eujse0S-0" edge="1">
          <mxGeometry relative="1" as="geometry" />
        </mxCell>
        <mxCell id="7OKhSnxkhulgmEiVHJU7-1" value="&lt;span style=&quot;font-family: &amp;#34;times new roman&amp;#34; , serif&quot;&gt;Корректировка инвестиционных заявок&lt;/span&gt;" style="rounded=1;whiteSpace=wrap;html=1;fillColor=#d5e8d4;strokeColor=#82b366;" parent="hhKOQZns3760f8i8-geJ-1" vertex="1">
          <mxGeometry x="295" y="647" width="160" height="60" as="geometry" />
        </mxCell>
        <mxCell id="BiBUfmdDDlIzIp6llmOI-1" value="P.01.04.04" style="text;html=1;strokeColor=none;fillColor=none;align=center;verticalAlign=middle;whiteSpace=wrap;rounded=0;" parent="hhKOQZns3760f8i8-geJ-1" vertex="1">
          <mxGeometry x="396" y="620" width="49" height="20" as="geometry" />
        </mxCell>
        <mxCell id="ZLezuD-C-r6y4P0OY-YI-13" style="edgeStyle=orthogonalEdgeStyle;rounded=0;orthogonalLoop=1;jettySize=auto;html=1;entryX=0.5;entryY=0;entryDx=0;entryDy=0;" parent="hhKOQZns3760f8i8-geJ-1" source="JkXyJDRW2Ao36Eujse0S-0" target="ZLezuD-C-r6y4P0OY-YI-2" edge="1">
          <mxGeometry relative="1" as="geometry" />
        </mxCell>
        <mxCell id="JkXyJDRW2Ao36Eujse0S-0" value="ИЗ откорректированы" style="shape=hexagon;perimeter=hexagonPerimeter2;whiteSpace=wrap;html=1;size=0.07142857142857142;strokeColor=#ae4132;fillColor=#FACDE8;" parent="hhKOQZns3760f8i8-geJ-1" vertex="1">
          <mxGeometry x="303" y="732" width="140" height="60" as="geometry" />
        </mxCell>
        <mxCell id="ZLezuD-C-r6y4P0OY-YI-8" style="edgeStyle=orthogonalEdgeStyle;rounded=0;orthogonalLoop=1;jettySize=auto;html=1;entryX=0.5;entryY=0;entryDx=0;entryDy=0;" parent="hhKOQZns3760f8i8-geJ-1" source="ZLezuD-C-r6y4P0OY-YI-2" target="ZLezuD-C-r6y4P0OY-YI-12" edge="1">
          <mxGeometry relative="1" as="geometry">
            <mxPoint x="373" y="987" as="targetPoint" />
          </mxGeometry>
        </mxCell>
        <mxCell id="ZLezuD-C-r6y4P0OY-YI-2" value="&lt;font style=&quot;font-size: 12px&quot;&gt;&lt;span style=&quot;font-family: &amp;#34;times new roman&amp;#34; , serif&quot;&gt;Ведение версионности инвестиционной заявки на&lt;br&gt;базе &lt;/span&gt;&lt;span lang=&quot;EN-US&quot; style=&quot;font-family: &amp;#34;times new roman&amp;#34; , serif&quot;&gt;BW&lt;/span&gt;&lt;/font&gt;" style="rounded=1;whiteSpace=wrap;html=1;fillColor=#d5e8d4;strokeColor=#82b366;" parent="hhKOQZns3760f8i8-geJ-1" vertex="1">
          <mxGeometry x="293" y="872" width="160" height="70" as="geometry" />
        </mxCell>
        <mxCell id="ZLezuD-C-r6y4P0OY-YI-12" value="Версионность ИЗ проведена" style="shape=hexagon;perimeter=hexagonPerimeter2;whiteSpace=wrap;html=1;size=0.07142857142857142;strokeColor=#ae4132;fillColor=#FACDE8;" parent="hhKOQZns3760f8i8-geJ-1" vertex="1">
          <mxGeometry x="303" y="1014" width="140" height="60" as="geometry" />
        </mxCell>
        <mxCell id="ZLezuD-C-r6y4P0OY-YI-14" value="P.01.04.05" style="text;html=1;strokeColor=none;fillColor=none;align=center;verticalAlign=middle;whiteSpace=wrap;rounded=0;" parent="hhKOQZns3760f8i8-geJ-1" vertex="1">
          <mxGeometry x="404" y="852" width="45" height="20" as="geometry" />
        </mxCell>
        <mxCell id="QeKE1bZzhpKvt54h3yeR-0" value="Заявка согласована?&lt;br&gt;&amp;nbsp; &amp;nbsp; &amp;nbsp;&lt;br&gt;" style="rhombus;whiteSpace=wrap;html=1;" parent="hhKOQZns3760f8i8-geJ-1" vertex="1">
          <mxGeometry x="245" y="363" width="94" height="80" as="geometry" />
        </mxCell>
        <mxCell id="QeKE1bZzhpKvt54h3yeR-1" style="edgeStyle=orthogonalEdgeStyle;rounded=0;orthogonalLoop=1;jettySize=auto;html=1;entryX=0.5;entryY=0;entryDx=0;entryDy=0;exitX=0.5;exitY=1;exitDx=0;exitDy=0;" parent="hhKOQZns3760f8i8-geJ-1" source="RbfxV30WdV_j7f8H4hf9-0" target="QeKE1bZzhpKvt54h3yeR-0" edge="1">
          <mxGeometry relative="1" as="geometry">
            <mxPoint x="368" y="180" as="sourcePoint" />
            <mxPoint x="368" y="330" as="targetPoint" />
          </mxGeometry>
        </mxCell>
        <mxCell id="QeKE1bZzhpKvt54h3yeR-2" value="Да" style="text;html=1;strokeColor=none;fillColor=none;align=center;verticalAlign=middle;whiteSpace=wrap;rounded=0;" parent="hhKOQZns3760f8i8-geJ-1" vertex="1">
          <mxGeometry x="291.5" y="437" width="40" height="20" as="geometry" />
        </mxCell>
        <mxCell id="QeKE1bZzhpKvt54h3yeR-5" value="Нет" style="text;html=1;strokeColor=none;fillColor=none;align=center;verticalAlign=middle;whiteSpace=wrap;rounded=0;" parent="hhKOQZns3760f8i8-geJ-1" vertex="1">
          <mxGeometry x="339" y="376" width="40" height="20" as="geometry" />
        </mxCell>
        <mxCell id="j6l5f8zFAApzri2Mxplj-0" value="&lt;span style=&quot;color: rgba(0 , 0 , 0 , 0) ; font-family: monospace ; font-size: 0px&quot;&gt;%3CmxGraphModel%3E%3Croot%3E%3CmxCell%20id%3D%220%22%2F%3E%3CmxCell%20id%3D%221%22%20parent%3D%220%22%2F%3E%3CmxCell%20id%3D%222%22%20value%3D%22%26lt%3Bfont%20style%3D%26quot%3Bfont-size%3A%2012px%26quot%3B%26gt%3B%D0%A4%D0%BE%D1%80%D0%BC%D0%B8%D1%80%D0%BE%D0%B2%D0%B0%D0%BD%D0%B8%D0%B5%20%D0%B8%D0%BD%D0%B2%D0%B5%D1%81%D1%82%D0%B8%D1%86%D0%B8%D0%BE%D0%BD%D0%BD%D0%BE%D0%B9%20%D0%B7%D0%B0%D1%8F%D0%B2%D0%BA%D0%B8%26lt%3B%2Ffont%26gt%3B%22%20style%3D%22shape%3Dcube%3BwhiteSpace%3Dwrap%3Bhtml%3D1%3BboundedLbl%3D1%3BbackgroundOutline%3D1%3BdarkOpacity%3D0.05%3BdarkOpacity2%3D0.1%3B%22%20vertex%3D%221%22%20parent%3D%221%22%3E%3CmxGeometry%20x%3D%22195%22%20y%3D%2292%22%20width%3D%22166%22%20height%3D%2280%22%20as%3D%22geometry%22%2F%3E%3C%2FmxCell%3E%3C%2Froot%3E%3C%2FmxGraphModel%3E&lt;/span&gt;" style="text;html=1;align=center;verticalAlign=middle;resizable=0;points=[];autosize=1;" parent="hhKOQZns3760f8i8-geJ-1" vertex="1">
          <mxGeometry x="582" y="382" width="20" height="20" as="geometry" />
        </mxCell>
        <mxCell id="RCwe3_IpT3134PuYEngB-1" style="edgeStyle=orthogonalEdgeStyle;rounded=0;orthogonalLoop=1;jettySize=auto;html=1;entryX=1;entryY=0.5;entryDx=0;entryDy=0;" parent="hhKOQZns3760f8i8-geJ-1" source="RCwe3_IpT3134PuYEngB-0" target="7OKhSnxkhulgmEiVHJU7-1" edge="1">
          <mxGeometry relative="1" as="geometry" />
        </mxCell>
        <mxCell id="RCwe3_IpT3134PuYEngB-0" value="Специалист" style="ellipse;whiteSpace=wrap;html=1;fillColor=#fff2cc;strokeColor=#d6b656;" parent="hhKOQZns3760f8i8-geJ-1" vertex="1">
          <mxGeometry x="497" y="654.5" width="120" height="45" as="geometry" />
        </mxCell>
        <mxCell id="RCwe3_IpT3134PuYEngB-5" style="edgeStyle=orthogonalEdgeStyle;rounded=0;orthogonalLoop=1;jettySize=auto;html=1;entryX=1;entryY=0.5;entryDx=0;entryDy=0;" parent="hhKOQZns3760f8i8-geJ-1" source="RCwe3_IpT3134PuYEngB-4" target="ZLezuD-C-r6y4P0OY-YI-2" edge="1">
          <mxGeometry relative="1" as="geometry" />
        </mxCell>
        <mxCell id="RCwe3_IpT3134PuYEngB-4" value="Специалист" style="ellipse;whiteSpace=wrap;html=1;fillColor=#fff2cc;strokeColor=#d6b656;" parent="hhKOQZns3760f8i8-geJ-1" vertex="1">
          <mxGeometry x="509" y="884.5" width="120" height="45" as="geometry" />
        </mxCell>
        <mxCell id="2wbgaHQjGOdXKTvnphRv-1" value="" style="endArrow=classic;html=1;" parent="hhKOQZns3760f8i8-geJ-1" source="QeKE1bZzhpKvt54h3yeR-0" edge="1" target="ExWAKWt4a1os_6UyFa-p-0">
          <mxGeometry width="50" height="50" relative="1" as="geometry">
            <mxPoint x="394" y="435" as="sourcePoint" />
            <mxPoint x="563" y="318" as="targetPoint" />
          </mxGeometry>
        </mxCell>
        <mxCell id="6NvLYSJm0YmXXYJPiKCe-0" value="&lt;span style=&quot;font-family: &amp;#34;times new roman&amp;#34; , serif&quot;&gt;&lt;font style=&quot;font-size: 12px&quot;&gt;Создание новой инвестиционной заявки&lt;/font&gt;&lt;/span&gt;" style="rounded=1;whiteSpace=wrap;html=1;fillColor=#d5e8d4;strokeColor=#82b366;" vertex="1" parent="hhKOQZns3760f8i8-geJ-1">
          <mxGeometry x="602" y="200" width="154" height="53" as="geometry" />
        </mxCell>
        <mxCell id="6NvLYSJm0YmXXYJPiKCe-1" value="&lt;font style=&quot;font-size: 12px&quot;&gt;P.01.04.02 &lt;/font&gt;" style="text;whiteSpace=wrap;html=1;" vertex="1" parent="hhKOQZns3760f8i8-geJ-1">
          <mxGeometry x="690" y="169" width="87" height="29" as="geometry" />
        </mxCell>
        <mxCell id="6NvLYSJm0YmXXYJPiKCe-3" value="&lt;font style=&quot;font-size: 12px&quot;&gt;Система SAP S/4HANA&lt;/font&gt;" style="text;whiteSpace=wrap;html=1;" vertex="1" parent="hhKOQZns3760f8i8-geJ-1">
          <mxGeometry x="663" y="130" width="178" height="29" as="geometry" />
        </mxCell>
        <mxCell id="6NvLYSJm0YmXXYJPiKCe-6" value="" style="endArrow=none;dashed=1;html=1;dashPattern=1 3;strokeWidth=2;" edge="1" parent="hhKOQZns3760f8i8-geJ-1">
          <mxGeometry width="50" height="50" relative="1" as="geometry">
            <mxPoint x="522" y="124" as="sourcePoint" />
            <mxPoint x="522" y="124" as="targetPoint" />
            <Array as="points">
              <mxPoint x="522" y="289" />
              <mxPoint x="802" y="289" />
              <mxPoint x="802" y="124" />
            </Array>
          </mxGeometry>
        </mxCell>
        <mxCell id="RbfxV30WdV_j7f8H4hf9-0" value="&lt;span style=&quot;font-family: &amp;#34;times new roman&amp;#34; , serif&quot;&gt;&lt;font style=&quot;font-size: 12px&quot;&gt;Получение статуса согласования со стороны АСКИД&lt;/font&gt;&lt;/span&gt;" style="rounded=1;whiteSpace=wrap;html=1;fillColor=#d5e8d4;strokeColor=#82b366;" vertex="1" parent="hhKOQZns3760f8i8-geJ-1">
          <mxGeometry x="287" y="272" width="154" height="53" as="geometry" />
        </mxCell>
        <mxCell id="RbfxV30WdV_j7f8H4hf9-1" value="" style="endArrow=classic;html=1;entryX=0.5;entryY=0;entryDx=0;entryDy=0;exitX=0;exitY=0;exitDx=93;exitDy=80;exitPerimeter=0;" edge="1" parent="hhKOQZns3760f8i8-geJ-1" source="zqzjYhxHLn3TAs3LUrE9-0" target="YH_HCsDl9Btgcp5SAB-7-2">
          <mxGeometry width="50" height="50" relative="1" as="geometry">
            <mxPoint x="387" y="313" as="sourcePoint" />
            <mxPoint x="437" y="263" as="targetPoint" />
          </mxGeometry>
        </mxCell>
        <mxCell id="ExWAKWt4a1os_6UyFa-p-0" value="Интерфейс" style="ellipse;whiteSpace=wrap;html=1;aspect=fixed;" vertex="1" parent="hhKOQZns3760f8i8-geJ-1">
          <mxGeometry x="409.5" y="362.5" width="80" height="80" as="geometry" />
        </mxCell>
        <mxCell id="ExWAKWt4a1os_6UyFa-p-4" value="" style="endArrow=classic;startArrow=classic;html=1;entryX=0;entryY=0.5;entryDx=0;entryDy=0;exitX=1;exitY=0.5;exitDx=0;exitDy=0;" edge="1" parent="hhKOQZns3760f8i8-geJ-1" source="ExWAKWt4a1os_6UyFa-p-0" target="6NvLYSJm0YmXXYJPiKCe-0">
          <mxGeometry width="50" height="50" relative="1" as="geometry">
            <mxPoint x="387" y="490" as="sourcePoint" />
            <mxPoint x="437" y="440" as="targetPoint" />
          </mxGeometry>
        </mxCell>
        <mxCell id="4ux96BljFfUCRb-c_Xii-0" value="Новая ИЗ создана" style="shape=hexagon;perimeter=hexagonPerimeter2;whiteSpace=wrap;html=1;size=0.07142857142857142;strokeColor=#ae4132;fillColor=#FACDE8;" vertex="1" parent="hhKOQZns3760f8i8-geJ-1">
          <mxGeometry x="609" y="325" width="140" height="60" as="geometry" />
        </mxCell>
        <mxCell id="4ux96BljFfUCRb-c_Xii-1" value="" style="endArrow=classic;html=1;" edge="1" parent="hhKOQZns3760f8i8-geJ-1" source="6NvLYSJm0YmXXYJPiKCe-0" target="4ux96BljFfUCRb-c_Xii-0">
          <mxGeometry width="50" height="50" relative="1" as="geometry">
            <mxPoint x="387" y="390" as="sourcePoint" />
            <mxPoint x="437" y="340" as="targetPoint" />
          </mxGeometry>
        </mxCell>
        <mxCell id="4ux96BljFfUCRb-c_Xii-2" value="" style="endArrow=classic;html=1;" edge="1" parent="hhKOQZns3760f8i8-geJ-1" source="4ux96BljFfUCRb-c_Xii-0" target="b6nYoe6xiIksNYDGqOzU-0">
          <mxGeometry width="50" height="50" relative="1" as="geometry">
            <mxPoint x="387" y="390" as="sourcePoint" />
            <mxPoint x="437" y="340" as="targetPoint" />
          </mxGeometry>
        </mxCell>
        <mxCell id="b6nYoe6xiIksNYDGqOzU-0" value="&lt;span style=&quot;font-family: &amp;#34;times new roman&amp;#34; , serif&quot;&gt;Дополнительная корректировка и согласование&lt;br&gt;инвестиционной заявки&lt;/span&gt;" style="rounded=1;whiteSpace=wrap;html=1;fillColor=#d5e8d4;strokeColor=#82b366;" vertex="1" parent="hhKOQZns3760f8i8-geJ-1">
          <mxGeometry x="599" y="453" width="160" height="60" as="geometry" />
        </mxCell>
        <mxCell id="b6nYoe6xiIksNYDGqOzU-3" value="" style="endArrow=classic;html=1;exitX=0;exitY=0.5;exitDx=0;exitDy=0;" edge="1" parent="hhKOQZns3760f8i8-geJ-1" source="b6nYoe6xiIksNYDGqOzU-0" target="QeKE1bZzhpKvt54h3yeR-0">
          <mxGeometry width="50" height="50" relative="1" as="geometry">
            <mxPoint x="387" y="261" as="sourcePoint" />
            <mxPoint x="437" y="211" as="targetPoint" />
            <Array as="points">
              <mxPoint x="433" y="483" />
            </Array>
          </mxGeometry>
        </mxCell>
        <mxCell id="b6nYoe6xiIksNYDGqOzU-4" value="&lt;font style=&quot;font-size: 12px&quot;&gt;P.01.04.03&amp;nbsp;&lt;/font&gt;" style="text;whiteSpace=wrap;html=1;" vertex="1" parent="hhKOQZns3760f8i8-geJ-1">
          <mxGeometry x="695.5" y="426" width="87" height="29" as="geometry" />
        </mxCell>
        <mxCell id="jlK9NyFO09yr3J1iHbtJ-0" value="" style="group" vertex="1" connectable="0" parent="hhKOQZns3760f8i8-geJ-1">
          <mxGeometry x="29" y="242" width="166" height="83" as="geometry" />
        </mxCell>
        <mxCell id="jlK9NyFO09yr3J1iHbtJ-1" value="" style="group" vertex="1" connectable="0" parent="jlK9NyFO09yr3J1iHbtJ-0">
          <mxGeometry width="166" height="83" as="geometry" />
        </mxCell>
        <mxCell id="jlK9NyFO09yr3J1iHbtJ-2" value="" style="rounded=0;whiteSpace=wrap;html=1;" vertex="1" parent="jlK9NyFO09yr3J1iHbtJ-1">
          <mxGeometry width="152.06106870229007" height="69.16666666666666" as="geometry" />
        </mxCell>
        <mxCell id="jlK9NyFO09yr3J1iHbtJ-3" value="" style="rounded=0;whiteSpace=wrap;html=1;" vertex="1" parent="jlK9NyFO09yr3J1iHbtJ-1">
          <mxGeometry x="7.603053435114504" y="5.763888888888888" width="152.06106870229007" height="69.16666666666666" as="geometry" />
        </mxCell>
        <mxCell id="jlK9NyFO09yr3J1iHbtJ-4" value="&lt;span style=&quot;font-family: &amp;#34;times new roman&amp;#34; , serif&quot;&gt;&lt;font style=&quot;font-size: 12px&quot;&gt;Данные по Фонду и определению проекта&lt;/font&gt;&lt;/span&gt;" style="rounded=0;whiteSpace=wrap;html=1;" vertex="1" parent="jlK9NyFO09yr3J1iHbtJ-1">
          <mxGeometry x="13.938931297709923" y="13.833333333333332" width="152.06106870229007" height="69.16666666666666" as="geometry" />
        </mxCell>
        <mxCell id="jlK9NyFO09yr3J1iHbtJ-7" value="" style="endArrow=none;dashed=1;html=1;dashPattern=1 3;strokeWidth=2;" edge="1" parent="hhKOQZns3760f8i8-geJ-1">
          <mxGeometry width="50" height="50" relative="1" as="geometry">
            <mxPoint x="277" y="640" as="sourcePoint" />
            <mxPoint x="277" y="640" as="targetPoint" />
            <Array as="points">
              <mxPoint x="277" y="805" />
              <mxPoint x="823" y="805" />
              <mxPoint x="823" y="640" />
            </Array>
          </mxGeometry>
        </mxCell>
        <mxCell id="YH_HCsDl9Btgcp5SAB-7-0" value="&lt;font style=&quot;font-size: 12px&quot;&gt;Мастер-система SAP S/4HANA&lt;/font&gt;" style="text;whiteSpace=wrap;html=1;" vertex="1" parent="hhKOQZns3760f8i8-geJ-1">
          <mxGeometry x="644.5" y="643" width="178" height="29" as="geometry" />
        </mxCell>
        <mxCell id="YH_HCsDl9Btgcp5SAB-7-2" value="" style="shape=sumEllipse;perimeter=ellipsePerimeter;whiteSpace=wrap;html=1;backgroundOutline=1;" vertex="1" parent="hhKOQZns3760f8i8-geJ-1">
          <mxGeometry x="349" y="220" width="30" height="30" as="geometry" />
        </mxCell>
        <mxCell id="YH_HCsDl9Btgcp5SAB-7-3" value="" style="endArrow=classic;html=1;exitX=0.5;exitY=1;exitDx=0;exitDy=0;" edge="1" parent="hhKOQZns3760f8i8-geJ-1" source="YH_HCsDl9Btgcp5SAB-7-2" target="RbfxV30WdV_j7f8H4hf9-0">
          <mxGeometry width="50" height="50" relative="1" as="geometry">
            <mxPoint x="241" y="445" as="sourcePoint" />
            <mxPoint x="291" y="395" as="targetPoint" />
          </mxGeometry>
        </mxCell>
        <mxCell id="YH_HCsDl9Btgcp5SAB-7-4" value="" style="endArrow=classic;html=1;" edge="1" parent="hhKOQZns3760f8i8-geJ-1" source="jlK9NyFO09yr3J1iHbtJ-2" target="bWxfmAh8v33M8ad3hohu-2">
          <mxGeometry width="50" height="50" relative="1" as="geometry">
            <mxPoint x="241" y="445" as="sourcePoint" />
            <mxPoint x="291" y="395" as="targetPoint" />
          </mxGeometry>
        </mxCell>
        <mxCell id="qUDjnf6Tw16llpes-nKN-0" value="&lt;span style=&quot;font-family: &amp;#34;times new roman&amp;#34; , serif&quot;&gt;передача данных в АСКИД&lt;/span&gt;" style="shape=cylinder2;whiteSpace=wrap;html=1;boundedLbl=1;backgroundOutline=1;size=15;" vertex="1" parent="hhKOQZns3760f8i8-geJ-1">
          <mxGeometry x="-133" y="612" width="121" height="120" as="geometry" />
        </mxCell>
        <mxCell id="T5lQ1C4pBilLxp9L4Yx2-5" value="" style="group" vertex="1" connectable="0" parent="hhKOQZns3760f8i8-geJ-1">
          <mxGeometry x="66" y="859" width="166" height="83" as="geometry" />
        </mxCell>
        <mxCell id="T5lQ1C4pBilLxp9L4Yx2-0" value="" style="group" vertex="1" connectable="0" parent="T5lQ1C4pBilLxp9L4Yx2-5">
          <mxGeometry width="166" height="83" as="geometry" />
        </mxCell>
        <mxCell id="T5lQ1C4pBilLxp9L4Yx2-1" value="" style="group" vertex="1" connectable="0" parent="T5lQ1C4pBilLxp9L4Yx2-0">
          <mxGeometry width="166" height="83" as="geometry" />
        </mxCell>
        <mxCell id="T5lQ1C4pBilLxp9L4Yx2-2" value="" style="rounded=0;whiteSpace=wrap;html=1;" vertex="1" parent="T5lQ1C4pBilLxp9L4Yx2-1">
          <mxGeometry width="152.06106870229007" height="69.16666666666666" as="geometry" />
        </mxCell>
        <mxCell id="T5lQ1C4pBilLxp9L4Yx2-3" value="" style="rounded=0;whiteSpace=wrap;html=1;" vertex="1" parent="T5lQ1C4pBilLxp9L4Yx2-1">
          <mxGeometry x="7.603053435114504" y="5.763888888888888" width="152.06106870229007" height="69.16666666666666" as="geometry" />
        </mxCell>
        <mxCell id="T5lQ1C4pBilLxp9L4Yx2-4" value="Изменения в BW" style="rounded=0;whiteSpace=wrap;html=1;" vertex="1" parent="T5lQ1C4pBilLxp9L4Yx2-1">
          <mxGeometry x="13.938931297709923" y="13.833333333333332" width="152.06106870229007" height="69.16666666666666" as="geometry" />
        </mxCell>
        <mxCell id="T5lQ1C4pBilLxp9L4Yx2-6" value="" style="endArrow=classic;html=1;exitX=0;exitY=0.5;exitDx=0;exitDy=0;" edge="1" parent="hhKOQZns3760f8i8-geJ-1" source="ZLezuD-C-r6y4P0OY-YI-2" target="T5lQ1C4pBilLxp9L4Yx2-4">
          <mxGeometry width="50" height="50" relative="1" as="geometry">
            <mxPoint x="283" y="983" as="sourcePoint" />
            <mxPoint x="333" y="933" as="targetPoint" />
          </mxGeometry>
        </mxCell>
        <mxCell id="T5lQ1C4pBilLxp9L4Yx2-7" value="Интерфейс" style="ellipse;whiteSpace=wrap;html=1;aspect=fixed;" vertex="1" parent="hhKOQZns3760f8i8-geJ-1">
          <mxGeometry x="37" y="633" width="80" height="80" as="geometry" />
        </mxCell>
        <mxCell id="ahMjk4DHZQ1-9O8yFpFC-0" value="" style="endArrow=none;dashed=1;html=1;dashPattern=1 3;strokeWidth=2;" edge="1" parent="hhKOQZns3760f8i8-geJ-1">
          <mxGeometry width="50" height="50" relative="1" as="geometry">
            <mxPoint x="-189" y="507" as="sourcePoint" />
            <mxPoint x="-189" y="507" as="targetPoint" />
            <Array as="points">
              <mxPoint x="-189" y="771" />
              <mxPoint x="31" y="771" />
              <mxPoint x="31" y="507" />
            </Array>
          </mxGeometry>
        </mxCell>
        <mxCell id="fuOdmnaidILBknJCjqU5-0" value="Система АСКИД" style="text;html=1;strokeColor=none;fillColor=none;align=center;verticalAlign=middle;whiteSpace=wrap;rounded=0;" vertex="1" parent="hhKOQZns3760f8i8-geJ-1">
          <mxGeometry x="-86" y="514.5" width="100" height="20" as="geometry" />
        </mxCell>
        <mxCell id="fuOdmnaidILBknJCjqU5-1" value="" style="group" vertex="1" connectable="0" parent="hhKOQZns3760f8i8-geJ-1">
          <mxGeometry x="144" y="643" width="132" height="60" as="geometry" />
        </mxCell>
        <mxCell id="fuOdmnaidILBknJCjqU5-2" value="" style="group" vertex="1" connectable="0" parent="fuOdmnaidILBknJCjqU5-1">
          <mxGeometry width="132" height="60" as="geometry" />
        </mxCell>
        <mxCell id="fuOdmnaidILBknJCjqU5-3" value="" style="group" vertex="1" connectable="0" parent="fuOdmnaidILBknJCjqU5-2">
          <mxGeometry width="132" height="60" as="geometry" />
        </mxCell>
        <mxCell id="fuOdmnaidILBknJCjqU5-4" value="" style="rounded=0;whiteSpace=wrap;html=1;" vertex="1" parent="fuOdmnaidILBknJCjqU5-3">
          <mxGeometry width="120.91603053435114" height="49.99999999999999" as="geometry" />
        </mxCell>
        <mxCell id="fuOdmnaidILBknJCjqU5-5" value="" style="rounded=0;whiteSpace=wrap;html=1;" vertex="1" parent="fuOdmnaidILBknJCjqU5-3">
          <mxGeometry x="6.0458015267175576" y="4.166666666666666" width="120.91603053435114" height="49.99999999999999" as="geometry" />
        </mxCell>
        <mxCell id="fuOdmnaidILBknJCjqU5-6" value="Данные" style="rounded=0;whiteSpace=wrap;html=1;" vertex="1" parent="fuOdmnaidILBknJCjqU5-3">
          <mxGeometry x="11.083969465648854" y="9.999999999999998" width="120.91603053435114" height="49.99999999999999" as="geometry" />
        </mxCell>
        <mxCell id="fuOdmnaidILBknJCjqU5-7" value="" style="endArrow=classic;html=1;exitX=0;exitY=0.5;exitDx=0;exitDy=0;" edge="1" parent="hhKOQZns3760f8i8-geJ-1" source="7OKhSnxkhulgmEiVHJU7-1" target="fuOdmnaidILBknJCjqU5-6">
          <mxGeometry width="50" height="50" relative="1" as="geometry">
            <mxPoint x="283" y="825" as="sourcePoint" />
            <mxPoint x="333" y="775" as="targetPoint" />
          </mxGeometry>
        </mxCell>
        <mxCell id="fuOdmnaidILBknJCjqU5-8" value="" style="endArrow=classic;startArrow=classic;html=1;entryX=0;entryY=0.5;entryDx=0;entryDy=0;" edge="1" parent="hhKOQZns3760f8i8-geJ-1" source="T5lQ1C4pBilLxp9L4Yx2-7" target="fuOdmnaidILBknJCjqU5-5">
          <mxGeometry width="50" height="50" relative="1" as="geometry">
            <mxPoint x="283" y="825" as="sourcePoint" />
            <mxPoint x="333" y="775" as="targetPoint" />
          </mxGeometry>
        </mxCell>
        <mxCell id="fuOdmnaidILBknJCjqU5-9" value="" style="endArrow=classic;startArrow=classic;html=1;exitX=0;exitY=0.5;exitDx=0;exitDy=0;" edge="1" parent="hhKOQZns3760f8i8-geJ-1" source="T5lQ1C4pBilLxp9L4Yx2-7" target="qUDjnf6Tw16llpes-nKN-0">
          <mxGeometry width="50" height="50" relative="1" as="geometry">
            <mxPoint x="283" y="825" as="sourcePoint" />
            <mxPoint x="333" y="775" as="targetPoint" />
          </mxGeometry>
        </mxCell>
      </root>
    </mxGraphModel>
  </diagram>
  <diagram id="4-1iVEiEVuCQ9fqzwIXP" name="Page-5-6">
    <mxGraphModel dx="1054" dy="585" grid="0" gridSize="10" guides="1" tooltips="1" connect="1" arrows="1" fold="1" page="1" pageScale="1" pageWidth="827" pageHeight="1169" math="0" shadow="0">
      <root>
        <mxCell id="lddFftHXvSMCqNKw9mLe-0" />
        <mxCell id="lddFftHXvSMCqNKw9mLe-1" parent="lddFftHXvSMCqNKw9mLe-0" />
        <mxCell id="lddFftHXvSMCqNKw9mLe-2" value="&lt;font&gt;&lt;span style=&quot;font-size: 16px&quot;&gt;Формирование плана-графика воздействия на оборудование&amp;nbsp;Р.01.05&lt;/span&gt;&lt;/font&gt;" style="text;html=1;strokeColor=none;fillColor=none;align=center;verticalAlign=middle;whiteSpace=wrap;rounded=0;" parent="lddFftHXvSMCqNKw9mLe-1" vertex="1">
          <mxGeometry x="256" y="10" width="548" height="30" as="geometry" />
        </mxCell>
        <mxCell id="GWlFLUeLgS9lK_s_0RXm-2" style="edgeStyle=orthogonalEdgeStyle;rounded=0;orthogonalLoop=1;jettySize=auto;html=1;entryX=0.5;entryY=0;entryDx=0;entryDy=0;" parent="lddFftHXvSMCqNKw9mLe-1" source="7ppwu4SJuqjfRgD4UtDQ-0" target="GWlFLUeLgS9lK_s_0RXm-0" edge="1">
          <mxGeometry relative="1" as="geometry" />
        </mxCell>
        <mxCell id="7ppwu4SJuqjfRgD4UtDQ-0" value="Инвестиционная заявка и подзаказы ТПиР" style="shape=hexagon;perimeter=hexagonPerimeter2;whiteSpace=wrap;html=1;size=0.07142857142857142;strokeColor=#ae4132;fillColor=#FACDE8;" parent="lddFftHXvSMCqNKw9mLe-1" vertex="1">
          <mxGeometry x="320" y="70" width="140" height="60" as="geometry" />
        </mxCell>
        <mxCell id="GWlFLUeLgS9lK_s_0RXm-1" style="edgeStyle=orthogonalEdgeStyle;rounded=0;orthogonalLoop=1;jettySize=auto;html=1;entryX=0;entryY=0.5;entryDx=0;entryDy=0;" parent="lddFftHXvSMCqNKw9mLe-1" source="7ppwu4SJuqjfRgD4UtDQ-1" target="GWlFLUeLgS9lK_s_0RXm-0" edge="1">
          <mxGeometry relative="1" as="geometry">
            <Array as="points">
              <mxPoint x="180" y="175" />
            </Array>
          </mxGeometry>
        </mxCell>
        <mxCell id="7ppwu4SJuqjfRgD4UtDQ-1" value="Заказы ТОиР" style="shape=hexagon;perimeter=hexagonPerimeter2;whiteSpace=wrap;html=1;size=0.07142857142857142;strokeColor=#ae4132;fillColor=#FACDE8;" parent="lddFftHXvSMCqNKw9mLe-1" vertex="1">
          <mxGeometry x="110" y="70" width="140" height="60" as="geometry" />
        </mxCell>
        <mxCell id="GWlFLUeLgS9lK_s_0RXm-3" style="edgeStyle=orthogonalEdgeStyle;rounded=0;orthogonalLoop=1;jettySize=auto;html=1;entryX=1;entryY=0.5;entryDx=0;entryDy=0;" parent="lddFftHXvSMCqNKw9mLe-1" source="7ppwu4SJuqjfRgD4UtDQ-2" target="GWlFLUeLgS9lK_s_0RXm-0" edge="1">
          <mxGeometry relative="1" as="geometry">
            <Array as="points">
              <mxPoint x="600" y="175" />
            </Array>
          </mxGeometry>
        </mxCell>
        <mxCell id="7ppwu4SJuqjfRgD4UtDQ-2" value="Планируемые заказы ТОиР" style="shape=hexagon;perimeter=hexagonPerimeter2;whiteSpace=wrap;html=1;size=0.07142857142857142;strokeColor=#ae4132;fillColor=#FACDE8;" parent="lddFftHXvSMCqNKw9mLe-1" vertex="1">
          <mxGeometry x="530" y="70" width="140" height="60" as="geometry" />
        </mxCell>
        <mxCell id="GWlFLUeLgS9lK_s_0RXm-5" style="edgeStyle=orthogonalEdgeStyle;rounded=0;orthogonalLoop=1;jettySize=auto;html=1;entryX=0.5;entryY=0;entryDx=0;entryDy=0;" parent="lddFftHXvSMCqNKw9mLe-1" source="GWlFLUeLgS9lK_s_0RXm-0" target="GWlFLUeLgS9lK_s_0RXm-4" edge="1">
          <mxGeometry relative="1" as="geometry" />
        </mxCell>
        <mxCell id="GWlFLUeLgS9lK_s_0RXm-0" value="" style="shape=sumEllipse;perimeter=ellipsePerimeter;whiteSpace=wrap;html=1;backgroundOutline=1;" parent="lddFftHXvSMCqNKw9mLe-1" vertex="1">
          <mxGeometry x="375" y="160" width="30" height="30" as="geometry" />
        </mxCell>
        <mxCell id="OemFu6wO052tQ6zlOylr-1" style="edgeStyle=orthogonalEdgeStyle;rounded=0;orthogonalLoop=1;jettySize=auto;html=1;entryX=0;entryY=0.5;entryDx=0;entryDy=0;" parent="lddFftHXvSMCqNKw9mLe-1" source="GWlFLUeLgS9lK_s_0RXm-4" target="OemFu6wO052tQ6zlOylr-0" edge="1">
          <mxGeometry relative="1" as="geometry" />
        </mxCell>
        <mxCell id="OemFu6wO052tQ6zlOylr-5" style="edgeStyle=orthogonalEdgeStyle;rounded=0;orthogonalLoop=1;jettySize=auto;html=1;entryX=0.5;entryY=0;entryDx=0;entryDy=0;" parent="lddFftHXvSMCqNKw9mLe-1" source="2HCvHpTxxMSzqndion3C-0" target="OemFu6wO052tQ6zlOylr-4" edge="1">
          <mxGeometry relative="1" as="geometry" />
        </mxCell>
        <mxCell id="GWlFLUeLgS9lK_s_0RXm-4" value="Формирование плана-графика воздействия на оборудование" style="rounded=1;whiteSpace=wrap;html=1;fillColor=#d5e8d4;strokeColor=#82b366;" parent="lddFftHXvSMCqNKw9mLe-1" vertex="1">
          <mxGeometry x="270" y="240" width="240" height="50" as="geometry" />
        </mxCell>
        <mxCell id="ss2F_G6jcj1SwrXuwTmJ-9" style="edgeStyle=orthogonalEdgeStyle;rounded=0;orthogonalLoop=1;jettySize=auto;html=1;entryX=0.5;entryY=0;entryDx=0;entryDy=0;" parent="lddFftHXvSMCqNKw9mLe-1" source="OemFu6wO052tQ6zlOylr-0" target="ss2F_G6jcj1SwrXuwTmJ-4" edge="1">
          <mxGeometry relative="1" as="geometry" />
        </mxCell>
        <mxCell id="OemFu6wO052tQ6zlOylr-0" value="Ведение версионности плана-графика" style="rounded=1;whiteSpace=wrap;html=1;fillColor=#f5f5f5;strokeColor=#666666;fontColor=#333333;" parent="lddFftHXvSMCqNKw9mLe-1" vertex="1">
          <mxGeometry x="564.5" y="235" width="131" height="60" as="geometry" />
        </mxCell>
        <mxCell id="OemFu6wO052tQ6zlOylr-2" value="&lt;font&gt;&lt;span style=&quot;font-size: 16px&quot;&gt;Формирование предложений и обоснований в корректировку плана ТОиР Р.01.06&lt;/span&gt;&lt;/font&gt;" style="text;html=1;strokeColor=none;fillColor=none;align=center;verticalAlign=middle;whiteSpace=wrap;rounded=0;" parent="lddFftHXvSMCqNKw9mLe-1" vertex="1">
          <mxGeometry x="484.25" y="450" width="342.5" height="35" as="geometry" />
        </mxCell>
        <mxCell id="ss2F_G6jcj1SwrXuwTmJ-17" style="edgeStyle=orthogonalEdgeStyle;rounded=0;orthogonalLoop=1;jettySize=auto;html=1;entryX=0.5;entryY=0;entryDx=0;entryDy=0;" parent="lddFftHXvSMCqNKw9mLe-1" source="OemFu6wO052tQ6zlOylr-4" target="hpph8Ryr1iIdlX0wm_2_-3" edge="1">
          <mxGeometry relative="1" as="geometry" />
        </mxCell>
        <mxCell id="OemFu6wO052tQ6zlOylr-4" value="План-график сформирован" style="shape=hexagon;perimeter=hexagonPerimeter2;whiteSpace=wrap;html=1;size=0.07142857142857142;strokeColor=#ae4132;fillColor=#FACDE8;" parent="lddFftHXvSMCqNKw9mLe-1" vertex="1">
          <mxGeometry x="320" y="525" width="140" height="45" as="geometry" />
        </mxCell>
        <mxCell id="hpph8Ryr1iIdlX0wm_2_-0" value="P.01.05.03" style="text;html=1;strokeColor=none;fillColor=none;align=center;verticalAlign=middle;whiteSpace=wrap;rounded=0;" parent="lddFftHXvSMCqNKw9mLe-1" vertex="1">
          <mxGeometry x="460" y="305" width="49" height="20" as="geometry" />
        </mxCell>
        <mxCell id="hpph8Ryr1iIdlX0wm_2_-1" value="P.01.04.02" style="text;html=1;strokeColor=none;fillColor=none;align=center;verticalAlign=middle;whiteSpace=wrap;rounded=0;" parent="lddFftHXvSMCqNKw9mLe-1" vertex="1">
          <mxGeometry x="642" y="215" width="49" height="20" as="geometry" />
        </mxCell>
        <mxCell id="hpph8Ryr1iIdlX0wm_2_-2" value="P.01.05.01" style="text;html=1;strokeColor=none;fillColor=none;align=center;verticalAlign=middle;whiteSpace=wrap;rounded=0;" parent="lddFftHXvSMCqNKw9mLe-1" vertex="1">
          <mxGeometry x="411" y="505" width="49" height="20" as="geometry" />
        </mxCell>
        <mxCell id="hpph8Ryr1iIdlX0wm_2_-5" style="edgeStyle=orthogonalEdgeStyle;rounded=0;orthogonalLoop=1;jettySize=auto;html=1;entryX=0.5;entryY=0;entryDx=0;entryDy=0;" parent="lddFftHXvSMCqNKw9mLe-1" source="hpph8Ryr1iIdlX0wm_2_-3" target="hpph8Ryr1iIdlX0wm_2_-4" edge="1">
          <mxGeometry relative="1" as="geometry" />
        </mxCell>
        <mxCell id="hpph8Ryr1iIdlX0wm_2_-3" value="Формирование предложений в корректировку плана ТОиР" style="rounded=1;whiteSpace=wrap;html=1;fillColor=#d5e8d4;strokeColor=#82b366;" parent="lddFftHXvSMCqNKw9mLe-1" vertex="1">
          <mxGeometry x="270" y="605" width="240" height="45" as="geometry" />
        </mxCell>
        <mxCell id="ss2F_G6jcj1SwrXuwTmJ-18" style="edgeStyle=orthogonalEdgeStyle;rounded=0;orthogonalLoop=1;jettySize=auto;html=1;entryX=0;entryY=0.5;entryDx=0;entryDy=0;" parent="lddFftHXvSMCqNKw9mLe-1" source="hpph8Ryr1iIdlX0wm_2_-4" target="ss2F_G6jcj1SwrXuwTmJ-13" edge="1">
          <mxGeometry relative="1" as="geometry" />
        </mxCell>
        <mxCell id="hpph8Ryr1iIdlX0wm_2_-4" value="Предложение сформировано" style="shape=hexagon;perimeter=hexagonPerimeter2;whiteSpace=wrap;html=1;size=0.07142857142857142;strokeColor=#ae4132;fillColor=#FACDE8;" parent="lddFftHXvSMCqNKw9mLe-1" vertex="1">
          <mxGeometry x="320" y="690" width="140" height="50" as="geometry" />
        </mxCell>
        <mxCell id="hpph8Ryr1iIdlX0wm_2_-10" style="edgeStyle=orthogonalEdgeStyle;rounded=0;orthogonalLoop=1;jettySize=auto;html=1;entryX=0;entryY=0.5;entryDx=0;entryDy=0;" parent="lddFftHXvSMCqNKw9mLe-1" source="hpph8Ryr1iIdlX0wm_2_-7" target="hpph8Ryr1iIdlX0wm_2_-15" edge="1">
          <mxGeometry relative="1" as="geometry">
            <mxPoint x="570" y="890" as="targetPoint" />
          </mxGeometry>
        </mxCell>
        <mxCell id="hpph8Ryr1iIdlX0wm_2_-7" value="Создание нового заказа ТОРО (или сообщения ТОРО) для включения технического объекта в план ТОиР" style="rounded=1;whiteSpace=wrap;html=1;fillColor=#d5e8d4;strokeColor=#82b366;" parent="lddFftHXvSMCqNKw9mLe-1" vertex="1">
          <mxGeometry x="270" y="880" width="240" height="60" as="geometry" />
        </mxCell>
        <mxCell id="hpph8Ryr1iIdlX0wm_2_-8" value="P.01.05.02" style="text;html=1;strokeColor=none;fillColor=none;align=center;verticalAlign=middle;whiteSpace=wrap;rounded=0;" parent="lddFftHXvSMCqNKw9mLe-1" vertex="1">
          <mxGeometry x="461" y="585" width="49" height="20" as="geometry" />
        </mxCell>
        <mxCell id="hpph8Ryr1iIdlX0wm_2_-9" value="P.01.05.02.01" style="text;html=1;strokeColor=none;fillColor=none;align=center;verticalAlign=middle;whiteSpace=wrap;rounded=0;" parent="lddFftHXvSMCqNKw9mLe-1" vertex="1">
          <mxGeometry x="440" y="860" width="70" height="20" as="geometry" />
        </mxCell>
        <mxCell id="hpph8Ryr1iIdlX0wm_2_-13" value="P.01.05.02.01" style="text;html=1;strokeColor=none;fillColor=none;align=center;verticalAlign=middle;whiteSpace=wrap;rounded=0;" parent="lddFftHXvSMCqNKw9mLe-1" vertex="1">
          <mxGeometry x="412" y="670" width="49" height="20" as="geometry" />
        </mxCell>
        <mxCell id="hpph8Ryr1iIdlX0wm_2_-12" value="P.01.05.02.02" style="text;html=1;strokeColor=none;fillColor=none;align=center;verticalAlign=middle;whiteSpace=wrap;rounded=0;" parent="lddFftHXvSMCqNKw9mLe-1" vertex="1">
          <mxGeometry x="651" y="860" width="70" height="20" as="geometry" />
        </mxCell>
        <mxCell id="hpph8Ryr1iIdlX0wm_2_-17" style="edgeStyle=orthogonalEdgeStyle;rounded=0;orthogonalLoop=1;jettySize=auto;html=1;entryX=0.5;entryY=0;entryDx=0;entryDy=0;" parent="lddFftHXvSMCqNKw9mLe-1" source="hpph8Ryr1iIdlX0wm_2_-15" target="hpph8Ryr1iIdlX0wm_2_-16" edge="1">
          <mxGeometry relative="1" as="geometry" />
        </mxCell>
        <mxCell id="hpph8Ryr1iIdlX0wm_2_-24" style="edgeStyle=orthogonalEdgeStyle;rounded=0;orthogonalLoop=1;jettySize=auto;html=1;entryX=0;entryY=0.5;entryDx=0;entryDy=0;" parent="lddFftHXvSMCqNKw9mLe-1" source="hpph8Ryr1iIdlX0wm_2_-15" target="GWlFLUeLgS9lK_s_0RXm-4" edge="1">
          <mxGeometry relative="1" as="geometry">
            <Array as="points">
              <mxPoint x="770" y="910" />
              <mxPoint x="770" y="1110" />
              <mxPoint x="100" y="1110" />
              <mxPoint x="100" y="265" />
            </Array>
          </mxGeometry>
        </mxCell>
        <mxCell id="hpph8Ryr1iIdlX0wm_2_-15" value="&lt;span style=&quot;color: rgb(0 , 0 , 0)&quot;&gt;Заказ создан; тех.объект исключен из программы ТПиР&amp;nbsp;&lt;/span&gt;" style="rounded=1;whiteSpace=wrap;html=1;fillColor=#f5f5f5;strokeColor=#666666;fontColor=#333333;" parent="lddFftHXvSMCqNKw9mLe-1" vertex="1">
          <mxGeometry x="590" y="880" width="131" height="60" as="geometry" />
        </mxCell>
        <mxCell id="hpph8Ryr1iIdlX0wm_2_-19" style="edgeStyle=orthogonalEdgeStyle;rounded=0;orthogonalLoop=1;jettySize=auto;html=1;entryX=0.5;entryY=0;entryDx=0;entryDy=0;" parent="lddFftHXvSMCqNKw9mLe-1" source="hpph8Ryr1iIdlX0wm_2_-16" target="hpph8Ryr1iIdlX0wm_2_-18" edge="1">
          <mxGeometry relative="1" as="geometry" />
        </mxCell>
        <mxCell id="hpph8Ryr1iIdlX0wm_2_-16" value="Дополнение заказа необходимыми данными" style="rounded=1;whiteSpace=wrap;html=1;fillColor=#d5e8d4;strokeColor=#82b366;" parent="lddFftHXvSMCqNKw9mLe-1" vertex="1">
          <mxGeometry x="565.5" y="970" width="180" height="30" as="geometry" />
        </mxCell>
        <mxCell id="hpph8Ryr1iIdlX0wm_2_-18" value="Заказ ТОиР изменен" style="shape=hexagon;perimeter=hexagonPerimeter2;whiteSpace=wrap;html=1;size=0.07142857142857142;strokeColor=#ae4132;fillColor=#FACDE8;" parent="lddFftHXvSMCqNKw9mLe-1" vertex="1">
          <mxGeometry x="585.5" y="1030" width="140" height="60" as="geometry" />
        </mxCell>
        <mxCell id="hpph8Ryr1iIdlX0wm_2_-20" value="P.01.05.02.03" style="text;html=1;strokeColor=none;fillColor=none;align=center;verticalAlign=middle;whiteSpace=wrap;rounded=0;" parent="lddFftHXvSMCqNKw9mLe-1" vertex="1">
          <mxGeometry x="675.5" y="950" width="70" height="20" as="geometry" />
        </mxCell>
        <mxCell id="hpph8Ryr1iIdlX0wm_2_-23" value="P.01.04.01" style="text;html=1;strokeColor=none;fillColor=none;align=center;verticalAlign=middle;whiteSpace=wrap;rounded=0;" parent="lddFftHXvSMCqNKw9mLe-1" vertex="1">
          <mxGeometry x="461" y="220" width="49" height="20" as="geometry" />
        </mxCell>
        <mxCell id="ss2F_G6jcj1SwrXuwTmJ-11" style="edgeStyle=orthogonalEdgeStyle;rounded=0;orthogonalLoop=1;jettySize=auto;html=1;entryX=0;entryY=0.5;entryDx=0;entryDy=0;" parent="lddFftHXvSMCqNKw9mLe-1" source="2HCvHpTxxMSzqndion3C-0" target="GWlFLUeLgS9lK_s_0RXm-4" edge="1">
          <mxGeometry relative="1" as="geometry">
            <Array as="points">
              <mxPoint x="100" y="450" />
              <mxPoint x="100" y="265" />
            </Array>
          </mxGeometry>
        </mxCell>
        <mxCell id="2HCvHpTxxMSzqndion3C-0" value="План-график согласован?&amp;nbsp;&amp;nbsp;" style="rhombus;whiteSpace=wrap;html=1;" parent="lddFftHXvSMCqNKw9mLe-1" vertex="1">
          <mxGeometry x="343" y="410" width="94" height="80" as="geometry" />
        </mxCell>
        <mxCell id="2HCvHpTxxMSzqndion3C-3" value="Нет" style="text;html=1;strokeColor=none;fillColor=none;align=center;verticalAlign=middle;whiteSpace=wrap;rounded=0;" parent="lddFftHXvSMCqNKw9mLe-1" vertex="1">
          <mxGeometry x="303" y="430" width="40" height="20" as="geometry" />
        </mxCell>
        <mxCell id="2HCvHpTxxMSzqndion3C-4" value="Да" style="text;html=1;strokeColor=none;fillColor=none;align=center;verticalAlign=middle;whiteSpace=wrap;rounded=0;" parent="lddFftHXvSMCqNKw9mLe-1" vertex="1">
          <mxGeometry x="390" y="485" width="40" height="20" as="geometry" />
        </mxCell>
        <mxCell id="ss2F_G6jcj1SwrXuwTmJ-12" style="edgeStyle=orthogonalEdgeStyle;rounded=0;orthogonalLoop=1;jettySize=auto;html=1;entryX=0.5;entryY=0;entryDx=0;entryDy=0;" parent="lddFftHXvSMCqNKw9mLe-1" source="ss2F_G6jcj1SwrXuwTmJ-0" target="GWlFLUeLgS9lK_s_0RXm-4" edge="1">
          <mxGeometry relative="1" as="geometry" />
        </mxCell>
        <mxCell id="ss2F_G6jcj1SwrXuwTmJ-0" value="Специалист" style="ellipse;whiteSpace=wrap;html=1;fillColor=#fff2cc;strokeColor=#d6b656;" parent="lddFftHXvSMCqNKw9mLe-1" vertex="1">
          <mxGeometry x="50" y="197.5" width="120" height="45" as="geometry" />
        </mxCell>
        <mxCell id="ss2F_G6jcj1SwrXuwTmJ-8" style="edgeStyle=orthogonalEdgeStyle;rounded=0;orthogonalLoop=1;jettySize=auto;html=1;entryX=1;entryY=0.5;entryDx=0;entryDy=0;" parent="lddFftHXvSMCqNKw9mLe-1" source="ss2F_G6jcj1SwrXuwTmJ-4" target="ss2F_G6jcj1SwrXuwTmJ-7" edge="1">
          <mxGeometry relative="1" as="geometry" />
        </mxCell>
        <mxCell id="ss2F_G6jcj1SwrXuwTmJ-4" value="Версия плана-графика создана" style="shape=hexagon;perimeter=hexagonPerimeter2;whiteSpace=wrap;html=1;size=0.07142857142857142;strokeColor=#ae4132;fillColor=#FACDE8;" parent="lddFftHXvSMCqNKw9mLe-1" vertex="1">
          <mxGeometry x="560" y="330" width="140" height="40" as="geometry" />
        </mxCell>
        <mxCell id="ss2F_G6jcj1SwrXuwTmJ-10" style="edgeStyle=orthogonalEdgeStyle;rounded=0;orthogonalLoop=1;jettySize=auto;html=1;entryX=0.5;entryY=0;entryDx=0;entryDy=0;" parent="lddFftHXvSMCqNKw9mLe-1" source="ss2F_G6jcj1SwrXuwTmJ-7" target="2HCvHpTxxMSzqndion3C-0" edge="1">
          <mxGeometry relative="1" as="geometry" />
        </mxCell>
        <mxCell id="ss2F_G6jcj1SwrXuwTmJ-7" value="Согласование плана-графика воздействия на оборудование" style="rounded=1;whiteSpace=wrap;html=1;fillColor=#d5e8d4;strokeColor=#82b366;" parent="lddFftHXvSMCqNKw9mLe-1" vertex="1">
          <mxGeometry x="270" y="325" width="240" height="50" as="geometry" />
        </mxCell>
        <mxCell id="ss2F_G6jcj1SwrXuwTmJ-20" style="edgeStyle=orthogonalEdgeStyle;rounded=0;orthogonalLoop=1;jettySize=auto;html=1;entryX=1;entryY=0.5;entryDx=0;entryDy=0;" parent="lddFftHXvSMCqNKw9mLe-1" source="ss2F_G6jcj1SwrXuwTmJ-13" target="ss2F_G6jcj1SwrXuwTmJ-14" edge="1">
          <mxGeometry relative="1" as="geometry">
            <Array as="points">
              <mxPoint x="663" y="800" />
            </Array>
          </mxGeometry>
        </mxCell>
        <mxCell id="ss2F_G6jcj1SwrXuwTmJ-13" value="Согласование плана-графика воздействия на оборудование" style="rounded=1;whiteSpace=wrap;html=1;fillColor=#d5e8d4;strokeColor=#82b366;" parent="lddFftHXvSMCqNKw9mLe-1" vertex="1">
          <mxGeometry x="550" y="690" width="225.5" height="50" as="geometry" />
        </mxCell>
        <mxCell id="ss2F_G6jcj1SwrXuwTmJ-21" style="edgeStyle=orthogonalEdgeStyle;rounded=0;orthogonalLoop=1;jettySize=auto;html=1;entryX=0.5;entryY=0;entryDx=0;entryDy=0;" parent="lddFftHXvSMCqNKw9mLe-1" source="ss2F_G6jcj1SwrXuwTmJ-14" target="hpph8Ryr1iIdlX0wm_2_-7" edge="1">
          <mxGeometry relative="1" as="geometry" />
        </mxCell>
        <mxCell id="ss2F_G6jcj1SwrXuwTmJ-22" style="edgeStyle=orthogonalEdgeStyle;rounded=0;orthogonalLoop=1;jettySize=auto;html=1;" parent="lddFftHXvSMCqNKw9mLe-1" source="ss2F_G6jcj1SwrXuwTmJ-14" edge="1">
          <mxGeometry relative="1" as="geometry">
            <mxPoint x="100" y="400" as="targetPoint" />
            <Array as="points">
              <mxPoint x="100" y="800" />
              <mxPoint x="100" y="420" />
            </Array>
          </mxGeometry>
        </mxCell>
        <mxCell id="ss2F_G6jcj1SwrXuwTmJ-14" value="План-график согласован?&amp;nbsp;&amp;nbsp;" style="rhombus;whiteSpace=wrap;html=1;" parent="lddFftHXvSMCqNKw9mLe-1" vertex="1">
          <mxGeometry x="343" y="760" width="94" height="80" as="geometry" />
        </mxCell>
        <mxCell id="ss2F_G6jcj1SwrXuwTmJ-19" value="P.01.05.03" style="text;html=1;strokeColor=none;fillColor=none;align=center;verticalAlign=middle;whiteSpace=wrap;rounded=0;" parent="lddFftHXvSMCqNKw9mLe-1" vertex="1">
          <mxGeometry x="726.5" y="670" width="49" height="20" as="geometry" />
        </mxCell>
        <mxCell id="ss2F_G6jcj1SwrXuwTmJ-23" value="Нет" style="text;html=1;strokeColor=none;fillColor=none;align=center;verticalAlign=middle;whiteSpace=wrap;rounded=0;" parent="lddFftHXvSMCqNKw9mLe-1" vertex="1">
          <mxGeometry x="303" y="780" width="40" height="20" as="geometry" />
        </mxCell>
        <mxCell id="ss2F_G6jcj1SwrXuwTmJ-24" value="Да" style="text;html=1;strokeColor=none;fillColor=none;align=center;verticalAlign=middle;whiteSpace=wrap;rounded=0;" parent="lddFftHXvSMCqNKw9mLe-1" vertex="1">
          <mxGeometry x="390" y="840" width="40" height="20" as="geometry" />
        </mxCell>
        <mxCell id="ss2F_G6jcj1SwrXuwTmJ-28" style="edgeStyle=orthogonalEdgeStyle;rounded=0;orthogonalLoop=1;jettySize=auto;html=1;exitX=1;exitY=0.5;exitDx=0;exitDy=0;entryX=0;entryY=0.5;entryDx=0;entryDy=0;" parent="lddFftHXvSMCqNKw9mLe-1" source="ss2F_G6jcj1SwrXuwTmJ-25" target="ss2F_G6jcj1SwrXuwTmJ-7" edge="1">
          <mxGeometry relative="1" as="geometry" />
        </mxCell>
        <mxCell id="ss2F_G6jcj1SwrXuwTmJ-25" value="Специалист" style="ellipse;whiteSpace=wrap;html=1;fillColor=#fff2cc;strokeColor=#d6b656;" parent="lddFftHXvSMCqNKw9mLe-1" vertex="1">
          <mxGeometry x="120" y="327.5" width="120" height="45" as="geometry" />
        </mxCell>
        <mxCell id="ss2F_G6jcj1SwrXuwTmJ-30" style="edgeStyle=orthogonalEdgeStyle;rounded=0;orthogonalLoop=1;jettySize=auto;html=1;entryX=0;entryY=0.5;entryDx=0;entryDy=0;" parent="lddFftHXvSMCqNKw9mLe-1" source="ss2F_G6jcj1SwrXuwTmJ-29" target="hpph8Ryr1iIdlX0wm_2_-3" edge="1">
          <mxGeometry relative="1" as="geometry">
            <Array as="points">
              <mxPoint x="200" y="628" />
              <mxPoint x="250" y="628" />
            </Array>
          </mxGeometry>
        </mxCell>
        <mxCell id="ss2F_G6jcj1SwrXuwTmJ-29" value="Специалист" style="ellipse;whiteSpace=wrap;html=1;fillColor=#fff2cc;strokeColor=#d6b656;" parent="lddFftHXvSMCqNKw9mLe-1" vertex="1">
          <mxGeometry x="140" y="540" width="120" height="45" as="geometry" />
        </mxCell>
        <mxCell id="ss2F_G6jcj1SwrXuwTmJ-32" style="edgeStyle=orthogonalEdgeStyle;rounded=0;orthogonalLoop=1;jettySize=auto;html=1;entryX=1;entryY=0.5;entryDx=0;entryDy=0;" parent="lddFftHXvSMCqNKw9mLe-1" source="ss2F_G6jcj1SwrXuwTmJ-31" target="ss2F_G6jcj1SwrXuwTmJ-13" edge="1">
          <mxGeometry relative="1" as="geometry">
            <Array as="points">
              <mxPoint x="796" y="628" />
              <mxPoint x="796" y="715" />
            </Array>
          </mxGeometry>
        </mxCell>
        <mxCell id="ss2F_G6jcj1SwrXuwTmJ-31" value="Специалист" style="ellipse;whiteSpace=wrap;html=1;fillColor=#fff2cc;strokeColor=#d6b656;" parent="lddFftHXvSMCqNKw9mLe-1" vertex="1">
          <mxGeometry x="655.5" y="605" width="120" height="45" as="geometry" />
        </mxCell>
        <mxCell id="ss2F_G6jcj1SwrXuwTmJ-34" style="edgeStyle=orthogonalEdgeStyle;rounded=0;orthogonalLoop=1;jettySize=auto;html=1;entryX=0;entryY=0.5;entryDx=0;entryDy=0;" parent="lddFftHXvSMCqNKw9mLe-1" source="ss2F_G6jcj1SwrXuwTmJ-33" target="hpph8Ryr1iIdlX0wm_2_-7" edge="1">
          <mxGeometry relative="1" as="geometry" />
        </mxCell>
        <mxCell id="ss2F_G6jcj1SwrXuwTmJ-35" style="edgeStyle=orthogonalEdgeStyle;rounded=0;orthogonalLoop=1;jettySize=auto;html=1;entryX=0;entryY=0.5;entryDx=0;entryDy=0;" parent="lddFftHXvSMCqNKw9mLe-1" source="ss2F_G6jcj1SwrXuwTmJ-33" target="hpph8Ryr1iIdlX0wm_2_-16" edge="1">
          <mxGeometry relative="1" as="geometry">
            <Array as="points">
              <mxPoint x="180" y="985" />
            </Array>
          </mxGeometry>
        </mxCell>
        <mxCell id="ss2F_G6jcj1SwrXuwTmJ-33" value="Специалист" style="ellipse;whiteSpace=wrap;html=1;fillColor=#fff2cc;strokeColor=#d6b656;" parent="lddFftHXvSMCqNKw9mLe-1" vertex="1">
          <mxGeometry x="120" y="887.5" width="120" height="45" as="geometry" />
        </mxCell>
      </root>
    </mxGraphModel>
  </diagram>
  <diagram id="6raxSAiR42x-UsJlRXgH" name="Page-7">
    <mxGraphModel dx="1054" dy="585" grid="0" gridSize="10" guides="1" tooltips="1" connect="1" arrows="1" fold="1" page="1" pageScale="1" pageWidth="827" pageHeight="1169" math="0" shadow="0">
      <root>
        <mxCell id="E2uEG9B_aQFYtEAOop1q-0" />
        <mxCell id="E2uEG9B_aQFYtEAOop1q-1" parent="E2uEG9B_aQFYtEAOop1q-0" />
        <mxCell id="w9eFnT5JxkWsALya2_3a-2" style="edgeStyle=orthogonalEdgeStyle;rounded=0;orthogonalLoop=1;jettySize=auto;html=1;entryX=0.5;entryY=0;entryDx=0;entryDy=0;" parent="E2uEG9B_aQFYtEAOop1q-1" source="sBL5zUxt9M6CVYN_hY-X-0" target="w9eFnT5JxkWsALya2_3a-0" edge="1">
          <mxGeometry relative="1" as="geometry" />
        </mxCell>
        <mxCell id="sBL5zUxt9M6CVYN_hY-X-0" value="Инвестиционная заявка и подзаказы ТПиР" style="shape=hexagon;perimeter=hexagonPerimeter2;whiteSpace=wrap;html=1;size=0.07142857142857142;strokeColor=#ae4132;fillColor=#FACDE8;" parent="E2uEG9B_aQFYtEAOop1q-1" vertex="1">
          <mxGeometry x="200" y="60" width="140" height="60" as="geometry" />
        </mxCell>
        <mxCell id="yrig5m1AK9p7LuVtdSUg-0" value="&lt;font&gt;&lt;span style=&quot;font-size: 16px&quot;&gt;Учет выполнения программы ТПиР&amp;nbsp;Р.01.07&lt;/span&gt;&lt;/font&gt;" style="text;html=1;strokeColor=none;fillColor=none;align=center;verticalAlign=middle;whiteSpace=wrap;rounded=0;" parent="E2uEG9B_aQFYtEAOop1q-1" vertex="1">
          <mxGeometry x="462" y="10" width="342" height="30" as="geometry" />
        </mxCell>
        <mxCell id="f5nMeTH7BdB1MzyDZM_a-5" style="edgeStyle=orthogonalEdgeStyle;rounded=0;orthogonalLoop=1;jettySize=auto;html=1;entryX=0;entryY=0.5;entryDx=0;entryDy=0;" parent="E2uEG9B_aQFYtEAOop1q-1" source="03YL-fQPQ2HeiHD3kpbZ-1" target="w9eFnT5JxkWsALya2_3a-7" edge="1">
          <mxGeometry relative="1" as="geometry">
            <Array as="points">
              <mxPoint x="180" y="335" />
            </Array>
          </mxGeometry>
        </mxCell>
        <mxCell id="03YL-fQPQ2HeiHD3kpbZ-1" value="Проведение и учет фактических затрат на подзаказах" style="rounded=1;whiteSpace=wrap;html=1;fillColor=#d5e8d4;strokeColor=#82b366;" parent="E2uEG9B_aQFYtEAOop1q-1" vertex="1">
          <mxGeometry x="120" y="224.5" width="120" height="60" as="geometry" />
        </mxCell>
        <mxCell id="Jh-JjPKWh2RWZMMa6tFb-0" value="P.01.06.01" style="text;html=1;strokeColor=none;fillColor=none;align=center;verticalAlign=middle;whiteSpace=wrap;rounded=0;" parent="E2uEG9B_aQFYtEAOop1q-1" vertex="1">
          <mxGeometry x="191" y="204.5" width="49" height="20" as="geometry" />
        </mxCell>
        <mxCell id="w9eFnT5JxkWsALya2_3a-6" style="edgeStyle=orthogonalEdgeStyle;rounded=0;orthogonalLoop=1;jettySize=auto;html=1;entryX=1;entryY=0.5;entryDx=0;entryDy=0;" parent="E2uEG9B_aQFYtEAOop1q-1" source="Jh-JjPKWh2RWZMMa6tFb-2" target="w9eFnT5JxkWsALya2_3a-7" edge="1">
          <mxGeometry relative="1" as="geometry">
            <mxPoint x="385" y="350" as="targetPoint" />
            <Array as="points">
              <mxPoint x="380" y="335" />
            </Array>
          </mxGeometry>
        </mxCell>
        <mxCell id="Jh-JjPKWh2RWZMMa6tFb-2" value="Распределение фактических затрат; прямые бухгалтерские проводки" style="rounded=1;whiteSpace=wrap;html=1;fillColor=#d5e8d4;strokeColor=#82b366;" parent="E2uEG9B_aQFYtEAOop1q-1" vertex="1">
          <mxGeometry x="310" y="210" width="150" height="60" as="geometry" />
        </mxCell>
        <mxCell id="w9eFnT5JxkWsALya2_3a-3" style="edgeStyle=orthogonalEdgeStyle;rounded=0;orthogonalLoop=1;jettySize=auto;html=1;entryX=0.433;entryY=-0.006;entryDx=0;entryDy=0;entryPerimeter=0;" parent="E2uEG9B_aQFYtEAOop1q-1" source="w9eFnT5JxkWsALya2_3a-0" target="03YL-fQPQ2HeiHD3kpbZ-1" edge="1">
          <mxGeometry relative="1" as="geometry" />
        </mxCell>
        <mxCell id="w9eFnT5JxkWsALya2_3a-4" style="edgeStyle=orthogonalEdgeStyle;rounded=0;orthogonalLoop=1;jettySize=auto;html=1;entryX=0.439;entryY=-0.028;entryDx=0;entryDy=0;entryPerimeter=0;" parent="E2uEG9B_aQFYtEAOop1q-1" source="w9eFnT5JxkWsALya2_3a-0" target="Jh-JjPKWh2RWZMMa6tFb-2" edge="1">
          <mxGeometry relative="1" as="geometry" />
        </mxCell>
        <mxCell id="w9eFnT5JxkWsALya2_3a-0" value="" style="shape=sumEllipse;perimeter=ellipsePerimeter;whiteSpace=wrap;html=1;backgroundOutline=1;" parent="E2uEG9B_aQFYtEAOop1q-1" vertex="1">
          <mxGeometry x="255" y="165" width="30" height="30" as="geometry" />
        </mxCell>
        <mxCell id="w9eFnT5JxkWsALya2_3a-1" value="P.01.06.02" style="text;html=1;strokeColor=none;fillColor=none;align=center;verticalAlign=middle;whiteSpace=wrap;rounded=0;" parent="E2uEG9B_aQFYtEAOop1q-1" vertex="1">
          <mxGeometry x="411" y="190" width="49" height="20" as="geometry" />
        </mxCell>
        <mxCell id="w9eFnT5JxkWsALya2_3a-9" style="edgeStyle=orthogonalEdgeStyle;rounded=0;orthogonalLoop=1;jettySize=auto;html=1;entryX=0.5;entryY=0;entryDx=0;entryDy=0;" parent="E2uEG9B_aQFYtEAOop1q-1" source="w9eFnT5JxkWsALya2_3a-7" target="w9eFnT5JxkWsALya2_3a-8" edge="1">
          <mxGeometry relative="1" as="geometry" />
        </mxCell>
        <mxCell id="w9eFnT5JxkWsALya2_3a-7" value="" style="shape=sumEllipse;perimeter=ellipsePerimeter;whiteSpace=wrap;html=1;backgroundOutline=1;" parent="E2uEG9B_aQFYtEAOop1q-1" vertex="1">
          <mxGeometry x="255" y="320" width="30" height="30" as="geometry" />
        </mxCell>
        <mxCell id="w9eFnT5JxkWsALya2_3a-12" style="edgeStyle=orthogonalEdgeStyle;rounded=0;orthogonalLoop=1;jettySize=auto;html=1;entryX=0.5;entryY=0;entryDx=0;entryDy=0;" parent="E2uEG9B_aQFYtEAOop1q-1" source="w9eFnT5JxkWsALya2_3a-8" target="w9eFnT5JxkWsALya2_3a-11" edge="1">
          <mxGeometry relative="1" as="geometry" />
        </mxCell>
        <mxCell id="tDH320bqyPT_5_HUDX5i-1" style="edgeStyle=orthogonalEdgeStyle;rounded=0;orthogonalLoop=1;jettySize=auto;html=1;entryX=0;entryY=0.5;entryDx=0;entryDy=0;" parent="E2uEG9B_aQFYtEAOop1q-1" source="w9eFnT5JxkWsALya2_3a-8" target="tDH320bqyPT_5_HUDX5i-0" edge="1">
          <mxGeometry relative="1" as="geometry" />
        </mxCell>
        <mxCell id="w9eFnT5JxkWsALya2_3a-8" value="Подзаказы ТПиР изменены" style="shape=hexagon;perimeter=hexagonPerimeter2;whiteSpace=wrap;html=1;size=0.07142857142857142;strokeColor=#ae4132;fillColor=#FACDE8;" parent="E2uEG9B_aQFYtEAOop1q-1" vertex="1">
          <mxGeometry x="200" y="395" width="140" height="60" as="geometry" />
        </mxCell>
        <mxCell id="8Q30VcasKbSzH5I0Vg1d-1" style="edgeStyle=orthogonalEdgeStyle;rounded=0;orthogonalLoop=1;jettySize=auto;html=1;entryX=0;entryY=0;entryDx=73;entryDy=0;entryPerimeter=0;" parent="E2uEG9B_aQFYtEAOop1q-1" source="w9eFnT5JxkWsALya2_3a-11" target="8Q30VcasKbSzH5I0Vg1d-0" edge="1">
          <mxGeometry relative="1" as="geometry" />
        </mxCell>
        <mxCell id="w9eFnT5JxkWsALya2_3a-11" value="Для оборудования, требующего замену: создание основного средства из &quot;фиктивного&quot; технического объекта" style="rounded=1;whiteSpace=wrap;html=1;fillColor=#d5e8d4;strokeColor=#82b366;" parent="E2uEG9B_aQFYtEAOop1q-1" vertex="1">
          <mxGeometry x="145" y="495" width="250" height="60" as="geometry" />
        </mxCell>
        <mxCell id="lmRotTMxo1XGaCBXCO5U-1" style="edgeStyle=orthogonalEdgeStyle;rounded=0;orthogonalLoop=1;jettySize=auto;html=1;entryX=1;entryY=0.5;entryDx=0;entryDy=0;" parent="E2uEG9B_aQFYtEAOop1q-1" source="d1RdQ87a0aZt3DATEjnE-0" target="tDH320bqyPT_5_HUDX5i-0" edge="1">
          <mxGeometry relative="1" as="geometry" />
        </mxCell>
        <mxCell id="d1RdQ87a0aZt3DATEjnE-0" value="&lt;br&gt;&lt;br&gt;Учет необходимых данных на стороне HR" style="strokeWidth=2;html=1;shape=mxgraph.flowchart.database;whiteSpace=wrap;" parent="E2uEG9B_aQFYtEAOop1q-1" vertex="1">
          <mxGeometry x="551" y="341" width="170" height="167.5" as="geometry" />
        </mxCell>
        <mxCell id="d1RdQ87a0aZt3DATEjnE-1" value="Система HR" style="text;html=1;strokeColor=none;fillColor=none;align=center;verticalAlign=middle;whiteSpace=wrap;rounded=0;" parent="E2uEG9B_aQFYtEAOop1q-1" vertex="1">
          <mxGeometry x="652" y="284.5" width="100" height="20" as="geometry" />
        </mxCell>
        <mxCell id="d1RdQ87a0aZt3DATEjnE-2" value="" style="endArrow=none;dashed=1;html=1;dashPattern=1 3;strokeWidth=2;" parent="E2uEG9B_aQFYtEAOop1q-1" edge="1">
          <mxGeometry width="50" height="50" relative="1" as="geometry">
            <mxPoint x="532" y="284.5" as="sourcePoint" />
            <mxPoint x="532" y="284.5" as="targetPoint" />
            <Array as="points">
              <mxPoint x="532" y="555.5" />
              <mxPoint x="752" y="555.5" />
              <mxPoint x="752" y="284.5" />
            </Array>
          </mxGeometry>
        </mxCell>
        <mxCell id="tDH320bqyPT_5_HUDX5i-2" style="edgeStyle=orthogonalEdgeStyle;rounded=0;orthogonalLoop=1;jettySize=auto;html=1;entryX=0;entryY=0.5;entryDx=0;entryDy=0;entryPerimeter=0;" parent="E2uEG9B_aQFYtEAOop1q-1" source="tDH320bqyPT_5_HUDX5i-0" target="d1RdQ87a0aZt3DATEjnE-0" edge="1">
          <mxGeometry relative="1" as="geometry" />
        </mxCell>
        <mxCell id="lmRotTMxo1XGaCBXCO5U-0" style="edgeStyle=orthogonalEdgeStyle;rounded=0;orthogonalLoop=1;jettySize=auto;html=1;entryX=1;entryY=0.5;entryDx=0;entryDy=0;" parent="E2uEG9B_aQFYtEAOop1q-1" source="tDH320bqyPT_5_HUDX5i-0" target="w9eFnT5JxkWsALya2_3a-8" edge="1">
          <mxGeometry relative="1" as="geometry" />
        </mxCell>
        <mxCell id="tDH320bqyPT_5_HUDX5i-0" value="Интерфейс" style="ellipse;whiteSpace=wrap;html=1;aspect=fixed;" parent="E2uEG9B_aQFYtEAOop1q-1" vertex="1">
          <mxGeometry x="414" y="385" width="80" height="80" as="geometry" />
        </mxCell>
        <mxCell id="f5nMeTH7BdB1MzyDZM_a-1" style="edgeStyle=orthogonalEdgeStyle;rounded=0;orthogonalLoop=1;jettySize=auto;html=1;entryX=1;entryY=0.5;entryDx=0;entryDy=0;" parent="E2uEG9B_aQFYtEAOop1q-1" source="f5nMeTH7BdB1MzyDZM_a-0" target="Jh-JjPKWh2RWZMMa6tFb-2" edge="1">
          <mxGeometry relative="1" as="geometry" />
        </mxCell>
        <mxCell id="f5nMeTH7BdB1MzyDZM_a-0" value="Специалист" style="ellipse;whiteSpace=wrap;html=1;fillColor=#fff2cc;strokeColor=#d6b656;" parent="E2uEG9B_aQFYtEAOop1q-1" vertex="1">
          <mxGeometry x="510" y="150" width="120" height="45" as="geometry" />
        </mxCell>
        <mxCell id="f5nMeTH7BdB1MzyDZM_a-2" value="&lt;span style=&quot;color: rgba(0 , 0 , 0 , 0) ; font-family: monospace ; font-size: 0px&quot;&gt;%3CmxGraphModel%3E%3Croot%3E%3CmxCell%20id%3D%220%22%2F%3E%3CmxCell%20id%3D%221%22%20parent%3D%220%22%2F%3E%3CmxCell%20id%3D%222%22%20value%3D%22%D0%91%D1%83%D1%85%D0%B3%D0%B0%D0%BB%D1%82%D0%B5%D1%80%22%20style%3D%22ellipse%3BwhiteSpace%3Dwrap%3Bhtml%3D1%3BfillColor%3D%23fff2cc%3BstrokeColor%3D%23d6b656%3B%22%20vertex%3D%221%22%20parent%3D%221%22%3E%3CmxGeometry%20x%3D%22510%22%20y%3D%22150%22%20width%3D%22120%22%20height%3D%2245%22%20as%3D%22geometry%22%2F%3E%3C%2FmxCell%3E%3C%2Froot%3E%3C%2FmxGraphModel%3E&lt;/span&gt;" style="text;html=1;align=center;verticalAlign=middle;resizable=0;points=[];autosize=1;" parent="E2uEG9B_aQFYtEAOop1q-1" vertex="1">
          <mxGeometry x="520" y="93" width="20" height="20" as="geometry" />
        </mxCell>
        <mxCell id="f5nMeTH7BdB1MzyDZM_a-4" style="edgeStyle=orthogonalEdgeStyle;rounded=0;orthogonalLoop=1;jettySize=auto;html=1;entryX=0;entryY=0.5;entryDx=0;entryDy=0;" parent="E2uEG9B_aQFYtEAOop1q-1" source="f5nMeTH7BdB1MzyDZM_a-3" target="03YL-fQPQ2HeiHD3kpbZ-1" edge="1">
          <mxGeometry relative="1" as="geometry" />
        </mxCell>
        <mxCell id="f5nMeTH7BdB1MzyDZM_a-3" value="Специалист" style="ellipse;whiteSpace=wrap;html=1;fillColor=#fff2cc;strokeColor=#d6b656;" parent="E2uEG9B_aQFYtEAOop1q-1" vertex="1">
          <mxGeometry x="40" y="120" width="120" height="45" as="geometry" />
        </mxCell>
        <mxCell id="f5nMeTH7BdB1MzyDZM_a-6" value="&lt;span style=&quot;color: rgba(0 , 0 , 0 , 0) ; font-family: monospace ; font-size: 0px&quot;&gt;%3CmxGraphModel%3E%3Croot%3E%3CmxCell%20id%3D%220%22%2F%3E%3CmxCell%20id%3D%221%22%20parent%3D%220%22%2F%3E%3CmxCell%20id%3D%222%22%20value%3D%22%D0%A1%D0%BF%D0%B5%D1%86%D0%B8%D0%B0%D0%BB%D0%B8%D1%81%D1%82%22%20style%3D%22ellipse%3BwhiteSpace%3Dwrap%3Bhtml%3D1%3BfillColor%3D%23fff2cc%3BstrokeColor%3D%23d6b656%3B%22%20vertex%3D%221%22%20parent%3D%221%22%3E%3CmxGeometry%20x%3D%2240%22%20y%3D%22120%22%20width%3D%22120%22%20height%3D%2245%22%20as%3D%22geometry%22%2F%3E%3C%2FmxCell%3E%3C%2Froot%3E%3C%2FmxGraphModel%3E&lt;/span&gt;" style="text;html=1;align=center;verticalAlign=middle;resizable=0;points=[];autosize=1;" parent="E2uEG9B_aQFYtEAOop1q-1" vertex="1">
          <mxGeometry x="256" y="659" width="20" height="20" as="geometry" />
        </mxCell>
        <mxCell id="f5nMeTH7BdB1MzyDZM_a-8" style="edgeStyle=orthogonalEdgeStyle;rounded=0;orthogonalLoop=1;jettySize=auto;html=1;entryX=0;entryY=0.5;entryDx=0;entryDy=0;" parent="E2uEG9B_aQFYtEAOop1q-1" source="f5nMeTH7BdB1MzyDZM_a-7" target="w9eFnT5JxkWsALya2_3a-11" edge="1">
          <mxGeometry relative="1" as="geometry" />
        </mxCell>
        <mxCell id="f5nMeTH7BdB1MzyDZM_a-7" value="Специалист" style="ellipse;whiteSpace=wrap;html=1;fillColor=#fff2cc;strokeColor=#d6b656;" parent="E2uEG9B_aQFYtEAOop1q-1" vertex="1">
          <mxGeometry x="50" y="402.25" width="120" height="45" as="geometry" />
        </mxCell>
        <mxCell id="8Q30VcasKbSzH5I0Vg1d-0" value="Ведение основных средств" style="shape=cube;whiteSpace=wrap;html=1;boundedLbl=1;backgroundOutline=1;darkOpacity=0.05;darkOpacity2=0.1;" parent="E2uEG9B_aQFYtEAOop1q-1" vertex="1">
          <mxGeometry x="197" y="610" width="166" height="80" as="geometry" />
        </mxCell>
        <mxCell id="8Q30VcasKbSzH5I0Vg1d-2" value="P.01.06.03" style="text;html=1;strokeColor=none;fillColor=none;align=center;verticalAlign=middle;whiteSpace=wrap;rounded=0;" parent="E2uEG9B_aQFYtEAOop1q-1" vertex="1">
          <mxGeometry x="346" y="475" width="49" height="20" as="geometry" />
        </mxCell>
      </root>
    </mxGraphModel>
  </diagram>
  <diagram id="bj6z2gNlnDEHx3BUDjnD" name="Page-8">
    <mxGraphModel dx="1054" dy="585" grid="0" gridSize="10" guides="1" tooltips="1" connect="1" arrows="1" fold="1" page="1" pageScale="1" pageWidth="827" pageHeight="1169" math="0" shadow="0">
      <root>
        <mxCell id="M-XGShOCnvAhqz2bpC7C-0" />
        <mxCell id="M-XGShOCnvAhqz2bpC7C-1" parent="M-XGShOCnvAhqz2bpC7C-0" />
        <mxCell id="vl3iMuOjb4cuJmSPNF3b-1" style="edgeStyle=orthogonalEdgeStyle;rounded=0;orthogonalLoop=1;jettySize=auto;html=1;" parent="M-XGShOCnvAhqz2bpC7C-1" source="M-XGShOCnvAhqz2bpC7C-2" edge="1">
          <mxGeometry relative="1" as="geometry">
            <mxPoint x="273" y="220" as="targetPoint" />
          </mxGeometry>
        </mxCell>
        <mxCell id="0UbXOya9vnRyLvr2vjsZ-6" style="edgeStyle=orthogonalEdgeStyle;rounded=0;orthogonalLoop=1;jettySize=auto;html=1;" parent="M-XGShOCnvAhqz2bpC7C-1" source="hVMWz5rtZ2YrvuHAkXPc-0" target="0UbXOya9vnRyLvr2vjsZ-0" edge="1">
          <mxGeometry relative="1" as="geometry">
            <Array as="points">
              <mxPoint x="596" y="130" />
            </Array>
          </mxGeometry>
        </mxCell>
        <mxCell id="M-XGShOCnvAhqz2bpC7C-2" value="&lt;font style=&quot;font-size: 12px&quot;&gt;Формирование плана-графика воздействия на оборудование&lt;/font&gt;" style="shape=cube;whiteSpace=wrap;html=1;boundedLbl=1;backgroundOutline=1;darkOpacity=0.05;darkOpacity2=0.1;" parent="M-XGShOCnvAhqz2bpC7C-1" vertex="1">
          <mxGeometry x="190" y="90" width="166" height="80" as="geometry" />
        </mxCell>
        <mxCell id="oBG5ah98dHN2zzs1VjNZ-0" value="P.01.04" style="text;html=1;strokeColor=none;fillColor=none;align=center;verticalAlign=middle;whiteSpace=wrap;rounded=0;" parent="M-XGShOCnvAhqz2bpC7C-1" vertex="1">
          <mxGeometry x="307" y="70" width="49" height="20" as="geometry" />
        </mxCell>
        <mxCell id="vl3iMuOjb4cuJmSPNF3b-0" value="&lt;font&gt;&lt;span style=&quot;font-size: 16px&quot;&gt;Формирование отчетности Р.01.07&lt;/span&gt;&lt;/font&gt;" style="text;html=1;strokeColor=none;fillColor=none;align=center;verticalAlign=middle;whiteSpace=wrap;rounded=0;" parent="M-XGShOCnvAhqz2bpC7C-1" vertex="1">
          <mxGeometry x="531" y="10" width="273" height="30" as="geometry" />
        </mxCell>
        <mxCell id="0UbXOya9vnRyLvr2vjsZ-0" value="&lt;br&gt;&lt;br&gt;Создание отчетности на стороне АСКИД" style="strokeWidth=2;html=1;shape=mxgraph.flowchart.database;whiteSpace=wrap;" parent="M-XGShOCnvAhqz2bpC7C-1" vertex="1">
          <mxGeometry x="511" y="230" width="170" height="160" as="geometry" />
        </mxCell>
        <mxCell id="0UbXOya9vnRyLvr2vjsZ-1" value="Система АСКИД" style="text;html=1;strokeColor=none;fillColor=none;align=center;verticalAlign=middle;whiteSpace=wrap;rounded=0;" parent="M-XGShOCnvAhqz2bpC7C-1" vertex="1">
          <mxGeometry x="612" y="180" width="100" height="20" as="geometry" />
        </mxCell>
        <mxCell id="0UbXOya9vnRyLvr2vjsZ-2" value="" style="endArrow=none;dashed=1;html=1;dashPattern=1 3;strokeWidth=2;" parent="M-XGShOCnvAhqz2bpC7C-1" edge="1">
          <mxGeometry width="50" height="50" relative="1" as="geometry">
            <mxPoint x="492" y="180" as="sourcePoint" />
            <mxPoint x="492" y="180" as="targetPoint" />
            <Array as="points">
              <mxPoint x="492" y="451" />
              <mxPoint x="712" y="451" />
              <mxPoint x="712" y="180" />
            </Array>
          </mxGeometry>
        </mxCell>
        <mxCell id="0UbXOya9vnRyLvr2vjsZ-4" style="edgeStyle=orthogonalEdgeStyle;rounded=0;orthogonalLoop=1;jettySize=auto;html=1;" parent="M-XGShOCnvAhqz2bpC7C-1" source="0UbXOya9vnRyLvr2vjsZ-3" target="0UbXOya9vnRyLvr2vjsZ-5" edge="1">
          <mxGeometry relative="1" as="geometry">
            <mxPoint x="273" y="330" as="targetPoint" />
          </mxGeometry>
        </mxCell>
        <mxCell id="0UbXOya9vnRyLvr2vjsZ-3" value="Формирование отчетности" style="rounded=1;whiteSpace=wrap;html=1;fillColor=#d5e8d4;strokeColor=#82b366;" parent="M-XGShOCnvAhqz2bpC7C-1" vertex="1">
          <mxGeometry x="213" y="220" width="120" height="60" as="geometry" />
        </mxCell>
        <mxCell id="0UbXOya9vnRyLvr2vjsZ-5" value="Отчеты на стороне &lt;br&gt;SAP S/4HANA" style="strokeWidth=2;html=1;shape=mxgraph.flowchart.multi-document;whiteSpace=wrap;fillColor=#dae8fc;strokeColor=#6c8ebf;" parent="M-XGShOCnvAhqz2bpC7C-1" vertex="1">
          <mxGeometry x="203" y="330" width="140" height="80" as="geometry" />
        </mxCell>
        <mxCell id="hVMWz5rtZ2YrvuHAkXPc-0" value="Интерфейс" style="ellipse;whiteSpace=wrap;html=1;aspect=fixed;" parent="M-XGShOCnvAhqz2bpC7C-1" vertex="1">
          <mxGeometry x="452" y="90" width="80" height="80" as="geometry" />
        </mxCell>
        <mxCell id="hVMWz5rtZ2YrvuHAkXPc-1" style="edgeStyle=orthogonalEdgeStyle;rounded=0;orthogonalLoop=1;jettySize=auto;html=1;" parent="M-XGShOCnvAhqz2bpC7C-1" source="M-XGShOCnvAhqz2bpC7C-2" target="hVMWz5rtZ2YrvuHAkXPc-0" edge="1">
          <mxGeometry relative="1" as="geometry">
            <mxPoint x="356" y="130" as="sourcePoint" />
            <mxPoint x="596" y="230" as="targetPoint" />
          </mxGeometry>
        </mxCell>
        <mxCell id="hVMWz5rtZ2YrvuHAkXPc-2" value="P.01.07.01" style="text;html=1;strokeColor=none;fillColor=none;align=center;verticalAlign=middle;whiteSpace=wrap;rounded=0;" parent="M-XGShOCnvAhqz2bpC7C-1" vertex="1">
          <mxGeometry x="294" y="310" width="49" height="20" as="geometry" />
        </mxCell>
        <mxCell id="hVMWz5rtZ2YrvuHAkXPc-3" value="P.01.07.02" style="text;html=1;strokeColor=none;fillColor=none;align=center;verticalAlign=middle;whiteSpace=wrap;rounded=0;" parent="M-XGShOCnvAhqz2bpC7C-1" vertex="1">
          <mxGeometry x="483" y="70" width="49" height="20" as="geometry" />
        </mxCell>
        <mxCell id="fJskk0IhhxYfHUlGYatj-1" style="edgeStyle=orthogonalEdgeStyle;rounded=0;orthogonalLoop=1;jettySize=auto;html=1;entryX=0;entryY=0.5;entryDx=0;entryDy=0;" parent="M-XGShOCnvAhqz2bpC7C-1" source="fJskk0IhhxYfHUlGYatj-0" target="0UbXOya9vnRyLvr2vjsZ-3" edge="1">
          <mxGeometry relative="1" as="geometry" />
        </mxCell>
        <mxCell id="fJskk0IhhxYfHUlGYatj-0" value="Специалист" style="ellipse;whiteSpace=wrap;html=1;fillColor=#fff2cc;strokeColor=#d6b656;" parent="M-XGShOCnvAhqz2bpC7C-1" vertex="1">
          <mxGeometry x="40" y="227.5" width="120" height="45" as="geometry" />
        </mxCell>
      </root>
    </mxGraphModel>
  </diagram>
</mxfile>
